<mxfile host="65bd71144e">
    <diagram id="nzs-77MGCpQPbajlojhl" name="Page-1">
        <mxGraphModel dx="1990" dy="458" grid="1" gridSize="10" guides="1" tooltips="1" connect="1" arrows="1" fold="1" page="1" pageScale="1" pageWidth="1100" pageHeight="850" math="0" shadow="0">
            <root>
                <mxCell id="0"/>
                <mxCell id="1" parent="0"/>
                <mxCell id="15" value="" style="shape=table;startSize=0;container=1;collapsible=0;childLayout=tableLayout;" vertex="1" parent="1">
                    <mxGeometry x="-30" y="10" width="480" height="200" as="geometry"/>
                </mxCell>
                <mxCell id="16" value="" style="shape=tableRow;horizontal=0;startSize=0;swimlaneHead=0;swimlaneBody=0;top=0;left=0;bottom=0;right=0;collapsible=0;dropTarget=0;fillColor=none;points=[[0,0.5],[1,0.5]];portConstraint=eastwest;" vertex="1" parent="15">
                    <mxGeometry width="480" height="40" as="geometry"/>
                </mxCell>
                <mxCell id="17" value="" style="shape=partialRectangle;html=1;whiteSpace=wrap;connectable=0;overflow=hidden;fillColor=none;top=0;left=0;bottom=0;right=0;pointerEvents=1;" vertex="1" parent="16">
                    <mxGeometry width="60" height="40" as="geometry">
                        <mxRectangle width="60" height="40" as="alternateBounds"/>
                    </mxGeometry>
                </mxCell>
                <mxCell id="18" value="" style="shape=partialRectangle;html=1;whiteSpace=wrap;connectable=0;overflow=hidden;fillColor=none;top=0;left=0;bottom=0;right=0;pointerEvents=1;" vertex="1" parent="16">
                    <mxGeometry x="60" width="60" height="40" as="geometry">
                        <mxRectangle width="60" height="40" as="alternateBounds"/>
                    </mxGeometry>
                </mxCell>
                <mxCell id="19" value="" style="shape=partialRectangle;html=1;whiteSpace=wrap;connectable=0;overflow=hidden;fillColor=none;top=0;left=0;bottom=0;right=0;pointerEvents=1;" vertex="1" parent="16">
                    <mxGeometry x="120" width="60" height="40" as="geometry">
                        <mxRectangle width="60" height="40" as="alternateBounds"/>
                    </mxGeometry>
                </mxCell>
                <mxCell id="20" value="" style="shape=partialRectangle;html=1;whiteSpace=wrap;connectable=0;overflow=hidden;fillColor=none;top=0;left=0;bottom=0;right=0;pointerEvents=1;" vertex="1" parent="16">
                    <mxGeometry x="180" width="60" height="40" as="geometry">
                        <mxRectangle width="60" height="40" as="alternateBounds"/>
                    </mxGeometry>
                </mxCell>
                <mxCell id="21" value="" style="shape=partialRectangle;html=1;whiteSpace=wrap;connectable=0;overflow=hidden;fillColor=none;top=0;left=0;bottom=0;right=0;pointerEvents=1;" vertex="1" parent="16">
                    <mxGeometry x="240" width="60" height="40" as="geometry">
                        <mxRectangle width="60" height="40" as="alternateBounds"/>
                    </mxGeometry>
                </mxCell>
                <mxCell id="22" value="" style="shape=partialRectangle;html=1;whiteSpace=wrap;connectable=0;overflow=hidden;fillColor=none;top=0;left=0;bottom=0;right=0;pointerEvents=1;" vertex="1" parent="16">
                    <mxGeometry x="300" width="60" height="40" as="geometry">
                        <mxRectangle width="60" height="40" as="alternateBounds"/>
                    </mxGeometry>
                </mxCell>
                <mxCell id="23" value="" style="shape=partialRectangle;html=1;whiteSpace=wrap;connectable=0;overflow=hidden;fillColor=none;top=0;left=0;bottom=0;right=0;pointerEvents=1;" vertex="1" parent="16">
                    <mxGeometry x="360" width="60" height="40" as="geometry">
                        <mxRectangle width="60" height="40" as="alternateBounds"/>
                    </mxGeometry>
                </mxCell>
                <mxCell id="24" value="" style="shape=partialRectangle;html=1;whiteSpace=wrap;connectable=0;overflow=hidden;fillColor=none;top=0;left=0;bottom=0;right=0;pointerEvents=1;" vertex="1" parent="16">
                    <mxGeometry x="420" width="60" height="40" as="geometry">
                        <mxRectangle width="60" height="40" as="alternateBounds"/>
                    </mxGeometry>
                </mxCell>
                <mxCell id="25" value="" style="shape=tableRow;horizontal=0;startSize=0;swimlaneHead=0;swimlaneBody=0;top=0;left=0;bottom=0;right=0;collapsible=0;dropTarget=0;fillColor=none;points=[[0,0.5],[1,0.5]];portConstraint=eastwest;" vertex="1" parent="15">
                    <mxGeometry y="40" width="480" height="40" as="geometry"/>
                </mxCell>
                <mxCell id="26" value="" style="shape=partialRectangle;html=1;whiteSpace=wrap;connectable=0;overflow=hidden;fillColor=none;top=0;left=0;bottom=0;right=0;pointerEvents=1;" vertex="1" parent="25">
                    <mxGeometry width="60" height="40" as="geometry">
                        <mxRectangle width="60" height="40" as="alternateBounds"/>
                    </mxGeometry>
                </mxCell>
                <mxCell id="27" value="" style="shape=partialRectangle;html=1;whiteSpace=wrap;connectable=0;overflow=hidden;fillColor=none;top=0;left=0;bottom=0;right=0;pointerEvents=1;" vertex="1" parent="25">
                    <mxGeometry x="60" width="60" height="40" as="geometry">
                        <mxRectangle width="60" height="40" as="alternateBounds"/>
                    </mxGeometry>
                </mxCell>
                <mxCell id="28" value="" style="shape=partialRectangle;html=1;whiteSpace=wrap;connectable=0;overflow=hidden;fillColor=none;top=0;left=0;bottom=0;right=0;pointerEvents=1;" vertex="1" parent="25">
                    <mxGeometry x="120" width="60" height="40" as="geometry">
                        <mxRectangle width="60" height="40" as="alternateBounds"/>
                    </mxGeometry>
                </mxCell>
                <mxCell id="29" value="" style="shape=partialRectangle;html=1;whiteSpace=wrap;connectable=0;overflow=hidden;fillColor=none;top=0;left=0;bottom=0;right=0;pointerEvents=1;" vertex="1" parent="25">
                    <mxGeometry x="180" width="60" height="40" as="geometry">
                        <mxRectangle width="60" height="40" as="alternateBounds"/>
                    </mxGeometry>
                </mxCell>
                <mxCell id="30" value="" style="shape=partialRectangle;html=1;whiteSpace=wrap;connectable=0;overflow=hidden;fillColor=none;top=0;left=0;bottom=0;right=0;pointerEvents=1;" vertex="1" parent="25">
                    <mxGeometry x="240" width="60" height="40" as="geometry">
                        <mxRectangle width="60" height="40" as="alternateBounds"/>
                    </mxGeometry>
                </mxCell>
                <mxCell id="31" value="" style="shape=partialRectangle;html=1;whiteSpace=wrap;connectable=0;overflow=hidden;fillColor=none;top=0;left=0;bottom=0;right=0;pointerEvents=1;" vertex="1" parent="25">
                    <mxGeometry x="300" width="60" height="40" as="geometry">
                        <mxRectangle width="60" height="40" as="alternateBounds"/>
                    </mxGeometry>
                </mxCell>
                <mxCell id="32" value="" style="shape=partialRectangle;html=1;whiteSpace=wrap;connectable=0;overflow=hidden;fillColor=none;top=0;left=0;bottom=0;right=0;pointerEvents=1;" vertex="1" parent="25">
                    <mxGeometry x="360" width="60" height="40" as="geometry">
                        <mxRectangle width="60" height="40" as="alternateBounds"/>
                    </mxGeometry>
                </mxCell>
                <mxCell id="33" value="" style="shape=partialRectangle;html=1;whiteSpace=wrap;connectable=0;overflow=hidden;fillColor=none;top=0;left=0;bottom=0;right=0;pointerEvents=1;" vertex="1" parent="25">
                    <mxGeometry x="420" width="60" height="40" as="geometry">
                        <mxRectangle width="60" height="40" as="alternateBounds"/>
                    </mxGeometry>
                </mxCell>
                <mxCell id="34" value="" style="shape=tableRow;horizontal=0;startSize=0;swimlaneHead=0;swimlaneBody=0;top=0;left=0;bottom=0;right=0;collapsible=0;dropTarget=0;fillColor=none;points=[[0,0.5],[1,0.5]];portConstraint=eastwest;" vertex="1" parent="15">
                    <mxGeometry y="80" width="480" height="40" as="geometry"/>
                </mxCell>
                <mxCell id="35" value="" style="shape=partialRectangle;html=1;whiteSpace=wrap;connectable=0;overflow=hidden;fillColor=none;top=0;left=0;bottom=0;right=0;pointerEvents=1;" vertex="1" parent="34">
                    <mxGeometry width="60" height="40" as="geometry">
                        <mxRectangle width="60" height="40" as="alternateBounds"/>
                    </mxGeometry>
                </mxCell>
                <mxCell id="36" value="" style="shape=partialRectangle;html=1;whiteSpace=wrap;connectable=0;overflow=hidden;fillColor=none;top=0;left=0;bottom=0;right=0;pointerEvents=1;" vertex="1" parent="34">
                    <mxGeometry x="60" width="60" height="40" as="geometry">
                        <mxRectangle width="60" height="40" as="alternateBounds"/>
                    </mxGeometry>
                </mxCell>
                <mxCell id="37" value="" style="shape=partialRectangle;html=1;whiteSpace=wrap;connectable=0;overflow=hidden;fillColor=none;top=0;left=0;bottom=0;right=0;pointerEvents=1;" vertex="1" parent="34">
                    <mxGeometry x="120" width="60" height="40" as="geometry">
                        <mxRectangle width="60" height="40" as="alternateBounds"/>
                    </mxGeometry>
                </mxCell>
                <mxCell id="38" value="" style="shape=partialRectangle;html=1;whiteSpace=wrap;connectable=0;overflow=hidden;fillColor=none;top=0;left=0;bottom=0;right=0;pointerEvents=1;" vertex="1" parent="34">
                    <mxGeometry x="180" width="60" height="40" as="geometry">
                        <mxRectangle width="60" height="40" as="alternateBounds"/>
                    </mxGeometry>
                </mxCell>
                <mxCell id="39" value="" style="shape=partialRectangle;html=1;whiteSpace=wrap;connectable=0;overflow=hidden;fillColor=none;top=0;left=0;bottom=0;right=0;pointerEvents=1;" vertex="1" parent="34">
                    <mxGeometry x="240" width="60" height="40" as="geometry">
                        <mxRectangle width="60" height="40" as="alternateBounds"/>
                    </mxGeometry>
                </mxCell>
                <mxCell id="40" value="" style="shape=partialRectangle;html=1;whiteSpace=wrap;connectable=0;overflow=hidden;fillColor=none;top=0;left=0;bottom=0;right=0;pointerEvents=1;" vertex="1" parent="34">
                    <mxGeometry x="300" width="60" height="40" as="geometry">
                        <mxRectangle width="60" height="40" as="alternateBounds"/>
                    </mxGeometry>
                </mxCell>
                <mxCell id="41" value="" style="shape=partialRectangle;html=1;whiteSpace=wrap;connectable=0;overflow=hidden;fillColor=none;top=0;left=0;bottom=0;right=0;pointerEvents=1;" vertex="1" parent="34">
                    <mxGeometry x="360" width="60" height="40" as="geometry">
                        <mxRectangle width="60" height="40" as="alternateBounds"/>
                    </mxGeometry>
                </mxCell>
                <mxCell id="42" value="" style="shape=partialRectangle;html=1;whiteSpace=wrap;connectable=0;overflow=hidden;fillColor=none;top=0;left=0;bottom=0;right=0;pointerEvents=1;" vertex="1" parent="34">
                    <mxGeometry x="420" width="60" height="40" as="geometry">
                        <mxRectangle width="60" height="40" as="alternateBounds"/>
                    </mxGeometry>
                </mxCell>
                <mxCell id="43" value="" style="shape=tableRow;horizontal=0;startSize=0;swimlaneHead=0;swimlaneBody=0;top=0;left=0;bottom=0;right=0;collapsible=0;dropTarget=0;fillColor=none;points=[[0,0.5],[1,0.5]];portConstraint=eastwest;" vertex="1" parent="15">
                    <mxGeometry y="120" width="480" height="40" as="geometry"/>
                </mxCell>
                <mxCell id="44" value="" style="shape=partialRectangle;html=1;whiteSpace=wrap;connectable=0;overflow=hidden;fillColor=none;top=0;left=0;bottom=0;right=0;pointerEvents=1;" vertex="1" parent="43">
                    <mxGeometry width="60" height="40" as="geometry">
                        <mxRectangle width="60" height="40" as="alternateBounds"/>
                    </mxGeometry>
                </mxCell>
                <mxCell id="45" value="" style="shape=partialRectangle;html=1;whiteSpace=wrap;connectable=0;overflow=hidden;fillColor=none;top=0;left=0;bottom=0;right=0;pointerEvents=1;" vertex="1" parent="43">
                    <mxGeometry x="60" width="60" height="40" as="geometry">
                        <mxRectangle width="60" height="40" as="alternateBounds"/>
                    </mxGeometry>
                </mxCell>
                <mxCell id="46" value="" style="shape=partialRectangle;html=1;whiteSpace=wrap;connectable=0;overflow=hidden;fillColor=none;top=0;left=0;bottom=0;right=0;pointerEvents=1;" vertex="1" parent="43">
                    <mxGeometry x="120" width="60" height="40" as="geometry">
                        <mxRectangle width="60" height="40" as="alternateBounds"/>
                    </mxGeometry>
                </mxCell>
                <mxCell id="47" value="" style="shape=partialRectangle;html=1;whiteSpace=wrap;connectable=0;overflow=hidden;fillColor=none;top=0;left=0;bottom=0;right=0;pointerEvents=1;" vertex="1" parent="43">
                    <mxGeometry x="180" width="60" height="40" as="geometry">
                        <mxRectangle width="60" height="40" as="alternateBounds"/>
                    </mxGeometry>
                </mxCell>
                <mxCell id="48" value="" style="shape=partialRectangle;html=1;whiteSpace=wrap;connectable=0;overflow=hidden;fillColor=none;top=0;left=0;bottom=0;right=0;pointerEvents=1;" vertex="1" parent="43">
                    <mxGeometry x="240" width="60" height="40" as="geometry">
                        <mxRectangle width="60" height="40" as="alternateBounds"/>
                    </mxGeometry>
                </mxCell>
                <mxCell id="49" value="" style="shape=partialRectangle;html=1;whiteSpace=wrap;connectable=0;overflow=hidden;fillColor=none;top=0;left=0;bottom=0;right=0;pointerEvents=1;" vertex="1" parent="43">
                    <mxGeometry x="300" width="60" height="40" as="geometry">
                        <mxRectangle width="60" height="40" as="alternateBounds"/>
                    </mxGeometry>
                </mxCell>
                <mxCell id="50" value="" style="shape=partialRectangle;html=1;whiteSpace=wrap;connectable=0;overflow=hidden;fillColor=none;top=0;left=0;bottom=0;right=0;pointerEvents=1;" vertex="1" parent="43">
                    <mxGeometry x="360" width="60" height="40" as="geometry">
                        <mxRectangle width="60" height="40" as="alternateBounds"/>
                    </mxGeometry>
                </mxCell>
                <mxCell id="51" value="" style="shape=partialRectangle;html=1;whiteSpace=wrap;connectable=0;overflow=hidden;fillColor=none;top=0;left=0;bottom=0;right=0;pointerEvents=1;" vertex="1" parent="43">
                    <mxGeometry x="420" width="60" height="40" as="geometry">
                        <mxRectangle width="60" height="40" as="alternateBounds"/>
                    </mxGeometry>
                </mxCell>
                <mxCell id="52" value="" style="shape=tableRow;horizontal=0;startSize=0;swimlaneHead=0;swimlaneBody=0;top=0;left=0;bottom=0;right=0;collapsible=0;dropTarget=0;fillColor=none;points=[[0,0.5],[1,0.5]];portConstraint=eastwest;" vertex="1" parent="15">
                    <mxGeometry y="160" width="480" height="40" as="geometry"/>
                </mxCell>
                <mxCell id="53" value="" style="shape=partialRectangle;html=1;whiteSpace=wrap;connectable=0;overflow=hidden;fillColor=none;top=0;left=0;bottom=0;right=0;pointerEvents=1;" vertex="1" parent="52">
                    <mxGeometry width="60" height="40" as="geometry">
                        <mxRectangle width="60" height="40" as="alternateBounds"/>
                    </mxGeometry>
                </mxCell>
                <mxCell id="54" value="" style="shape=partialRectangle;html=1;whiteSpace=wrap;connectable=0;overflow=hidden;fillColor=none;top=0;left=0;bottom=0;right=0;pointerEvents=1;" vertex="1" parent="52">
                    <mxGeometry x="60" width="60" height="40" as="geometry">
                        <mxRectangle width="60" height="40" as="alternateBounds"/>
                    </mxGeometry>
                </mxCell>
                <mxCell id="55" value="" style="shape=partialRectangle;html=1;whiteSpace=wrap;connectable=0;overflow=hidden;fillColor=none;top=0;left=0;bottom=0;right=0;pointerEvents=1;" vertex="1" parent="52">
                    <mxGeometry x="120" width="60" height="40" as="geometry">
                        <mxRectangle width="60" height="40" as="alternateBounds"/>
                    </mxGeometry>
                </mxCell>
                <mxCell id="56" value="" style="shape=partialRectangle;html=1;whiteSpace=wrap;connectable=0;overflow=hidden;fillColor=none;top=0;left=0;bottom=0;right=0;pointerEvents=1;" vertex="1" parent="52">
                    <mxGeometry x="180" width="60" height="40" as="geometry">
                        <mxRectangle width="60" height="40" as="alternateBounds"/>
                    </mxGeometry>
                </mxCell>
                <mxCell id="57" value="" style="shape=partialRectangle;html=1;whiteSpace=wrap;connectable=0;overflow=hidden;fillColor=none;top=0;left=0;bottom=0;right=0;pointerEvents=1;" vertex="1" parent="52">
                    <mxGeometry x="240" width="60" height="40" as="geometry">
                        <mxRectangle width="60" height="40" as="alternateBounds"/>
                    </mxGeometry>
                </mxCell>
                <mxCell id="58" value="" style="shape=partialRectangle;html=1;whiteSpace=wrap;connectable=0;overflow=hidden;fillColor=none;top=0;left=0;bottom=0;right=0;pointerEvents=1;" vertex="1" parent="52">
                    <mxGeometry x="300" width="60" height="40" as="geometry">
                        <mxRectangle width="60" height="40" as="alternateBounds"/>
                    </mxGeometry>
                </mxCell>
                <mxCell id="59" value="" style="shape=partialRectangle;html=1;whiteSpace=wrap;connectable=0;overflow=hidden;fillColor=none;top=0;left=0;bottom=0;right=0;pointerEvents=1;" vertex="1" parent="52">
                    <mxGeometry x="360" width="60" height="40" as="geometry">
                        <mxRectangle width="60" height="40" as="alternateBounds"/>
                    </mxGeometry>
                </mxCell>
                <mxCell id="60" value="" style="shape=partialRectangle;html=1;whiteSpace=wrap;connectable=0;overflow=hidden;fillColor=none;top=0;left=0;bottom=0;right=0;pointerEvents=1;" vertex="1" parent="52">
                    <mxGeometry x="420" width="60" height="40" as="geometry">
                        <mxRectangle width="60" height="40" as="alternateBounds"/>
                    </mxGeometry>
                </mxCell>
                <mxCell id="61" value="" style="shape=stencil(nVjbchoxDP0aXjW2ZVv2c5r+R2ZCClMKGUJ6+ftqy3jB8uYE+gaLDpaOjmRpV/zwtnl6Xa+CezsdD9/Xv7bPp82Kv6xC2O436+P2pJ9W/Ljih5fDcf3teHjfP5+/vz5NltOnH4ef0z/8PuO4UpUJFdyf85NAIf178PVsv9vur+yjo+g6+0jJAXtPnDp7oViAfaDkO3vvKWQAYIq5B0SqKIJI0nvkC6UIAJlK71JQlxgAKrneJSXJAZKS/p85QSgAllIg6bPGrjm5DGByoQdo3gBLKVLo88yYpSTke1qnVMrHgKxBxx6QKQcAyCR9DMkRgzyIp9ifoDTUCgCRYk+rRoXULWLVmh0JyINUktIDlGgQdJnLcQYIFZCHkkj6oJUGCKjkaw/IlEDF1dBCbIAyF/kyIDXWZ0Cigk4oxD1L6iSitVaKPUuTk+AE71yryBmhAkZHFJI+CH3iAK8adRgAKGqNsZggapPXMoBtn1FARXJNlE1zvfCwXHNlCEK9RAAVm1gAA4FrhZnOpDRl1Mqi7RuaOUGdialwD8i4WaYBoAoGAC16NwA86Ex5qIgaYbMUTfUACABQHKVyF0AoDwDkUmXK6Z6gNU1W3wnKdZKa0XeG4pvagAFgaej/5aFGMzrBL9Qokrd2usgWgGKQ0trQrTUqjvJQcojXzAOvuNGkQnGo0QK0oTVavQWgZqk1KmM7Rm3jPwBm0NUrArXj6QTDksMn+OFezMRoNi6tIq8u0ooGS24/z1e1Bg1o1eneNHwJFMEExMP0oDdARCcMjUkHmgyGAfbkzATk4awbdBgwU5xqCag15Ca1GRChWnWcL72WNJURJM7rCWbWldZ5lgF+2JqYPOr39hbV6bug2bgNkdfjPVogbDHo/lDRWmZHb/UQDWShrWBXGxDSnQ6QZmPyrb4X7YfpTXe4AlTnGts3Lol+aMJ4Cw1NwrdtuWzThZfo4ab9ZEcn3zvjYa605NmYB+BMsb67tk9/KP1q7BlQ4xOxGHs0VfjalsaLPbotL6v4jfbFLmDYHw7t59vi1Y4b/R18sraGnk+cLh5WI6yGe18IfW6vHy5vn162u9355dX17/ZtlT46v+nix78=);lineShape=1;" vertex="1" parent="1">
                    <mxGeometry x="109.69838941045805" y="217.56096862604352" width="7.181726632724724" height="57.589198565259565" as="geometry"/>
                </mxCell>
                <mxCell id="62" value="" style="shape=stencil(lVjLctswDPwaXzEkwec5Tf8jM3FqT90447ivv++qHqoiZK+bm0xrBQLYBUBu9OF99/S23QT3fj4dv25/7p/Pu41+2oSwf91tT/sznjb6uNGHl+Np++V0/P76fPn99jS9OT19O/6YvvDrgotOcphQwf2+rHgvQf+ufL4ADvvXBUCreD8AghOXCCBKdgNAvWRmYf67A7DJFm4DQpXSRkCTxABJYh4AqfRNXgd40TgAMgf4Kq4MgAKbxGkfJY0WaqRRauLTaKBJIGlootl6EMn7oIHJM2KkjQC0OzhnIUvLBFAkjDHSJIWkzTepY55D6V5dT5t23szkRthI2kC9MGYBeVGuhlBHQJHibwNikDaqIcQe6OuA0qk8RwmSJYlL0VrQRpmUZ8HPiSviyJZy7cyZqRGlksSB+yZxOVALNUgcfQBbG1NDkmT0BvIRtjbod6R3qdIqATSrh+qp0wCYPNQkgZBvAhgLKGx3tjSytQXxhTs9FgHEzfGwmlKMT7hIAGo13VAJWZRcD+LCQiUWEJNktpT7ynVA7nKZAZF2OKRJR003T8OKSl1N7UagSeJgwY16wCc898GPUaqIG7OAII7kA70D86H1Wr0QUGLkC70bLDocVRyi5FcWWMeaFbz0gVQNUC3XVZS44kqweWD09g6zjhE16jPzuklckcmxuMJHI4jYW/2tMJnOjpXILMS+gaXkmEZXA9kkakZXjCLZWmBOfxgAJvhxS/gEI1PxvfHPAJVCZoestnwXvqWU7CSdWy8ktzp7G/OATszGmehtG0XfZRY0d70sOnsiVQCzupl/FBMWG+5XUyKGvkqoEWa5LMdKIuqw6uw5U6cx9JmuWO5Mus2eBqDpwOZQTFimo2C4Z+OMHeEWdeQqwEkxgot95cb7pirhMMCq0lzlFlRNZD9wwJwFWi/m1yMUurZmgKNdHVOzOf7gzFdI0tYh0iDpzlnAHB5i78K3mFrMaK/0zIe5PBofaI9ea0fpfAgHTdY87W6qfWrp7zta8SB+s39HG890WrPfZ6TWYvuOEyUyw9lKvfGXFWBtdm4L9EQMhplOyzvCxEhTuugtA8q1M0d0iXfeH1XceDv46NXNfwDw8O+m6GV/OFwumpb/25slLF1upfTxDw==);lineShape=1;" vertex="1" parent="1">
                    <mxGeometry x="102.89114188125632" y="217.5515221153429" width="23.566481753244208" height="16.195547897836793" as="geometry"/>
                </mxCell>
                <mxCell id="63" value="" style="shape=stencil(nVfbctpADP0av2p2tffnNP2PzIQUTylkCOnl7yvXXYpkOA59M0bHq8s5knYID2/bp9fNwO7tdDx83fwYn0/bIXwamMf9dnMcT/I0hMchPLwcjpsvx8P7/nn+/fo0WU5P3w7fpy/8nHHBUU0Tit2v+U2mWP68+Dzb78a9ti9N2ftE1QGApxgVgCuFCABMripAqP3MW4CsT4iVPAIE8qwAqRB7CEhZJykRVwCI5IMClEQNpDUGKvqEyhSAS9VT4LsAhYKzgAJcapJWzYwqUYETWqbqNSDDOrRGwZyAK+2dI6eDaL4X//oRlbKma4sUAwAkSkUDJCxQ6uao6SDkzAJcqomC5obkAUVdWufaBeDvmdcBgWKyAA9iyNVqtJWehuuASMW4JIIAMWS2bUbolZBLC0CVLDF2SVdaGO9AY5qCXvC7AGpMadXUqOdGcqtwS8mFjKmRLCAhybneVS5cQmmd6K0LJ2dCPQiZnU0r0sM1jTrKyKfW58EZIEEgn3KfOBcaRYWYWpmRXCUG3JAYl5JLSNTelvoiDzcR/i5ElM7F1qkMRMdsZ4TIOoDEVmqmEAzt2c5RIVMG9gtmrExFZ3vxytj15HRKV+a6rCa6ZawsDrKZaHmubCZsh8/a6mOFsLZbWZau7G5dhudwqYHsRKp6JQl9Slzvp1R0coQdYEjJUNOS9HC58NwnWLd3FBAVpK05Y4/E5Wvv/R+zF3fN2Mf+TLl2d8TLpX/uY+mc8qm1gqsle7yZfpgM/3FPWLGXh3+Xkpdxt5vvNJf/20uMvJovQOHxNw==);lineShape=1;" vertex="1" parent="1">
                    <mxGeometry x="110.78013992262663" y="294.92631576699716" width="9.458276589186479" height="20.00515816692675" as="geometry"/>
                </mxCell>
                <mxCell id="64" value="" style="shape=stencil(fZbdcgIhDIWfZm8zQAg/17Z9j85U606tdqz9e/tmZ0c0uJ47xP0I5JwEBl59bp8/1kNwn6fj4W39M76ctgM/DCGM++36OJ50NPDjwKvN4bh+PR6+9i/z74/n6ctp9H74nlb4nbmSKZeJCu5vngmZ6jzzNAO7cX8FVKEsBuBKrgKg9oAE8gkCbLeUhEoEQKSUDZDLeWYRKIl8MEDRmHwfyBrBG6Amyu4+kDxxMoB3jhwgYu7TVAsVkFcWCs4CTBEoF4RctKeOxHIf8IXYpikHikAIf+MNUW94AGSSaoAoFIE3AlOyeWU+p2E5S9yfQZcQILVuQOwZdJNoS9Ls3wA5u2XZTIHECqeJ9kDpSaauRiNVcAY1QhdBzeLBli5WazpkSsBLV25uRaqWRyFawTQzRRIQYirJzq5atkBqLfouwqUxLBepthWb10vrWZY6UOAeyKCCtDV625mm9gmUC4Wc3VLJMMIE1BsA2FW9JraVlQB7n3c9oMKhCLEvIM1zBPZ25/umNQ1tVEC2G+fFCC8g398O2hNQuQlVu752DBfA+q0ptnqO5JFmeuIuo9DY7KjY71UxdJV4EntifPWorW++R/dC4t7V3DlIB5cHx2bc7eb3yvX//QNFp+bHDT/+Aw==);lineShape=1;" vertex="1" parent="1">
                    <mxGeometry x="111.70473418985262" y="287.064916967787" width="2.748552807126597" height="2.74425659785747" as="geometry"/>
                </mxCell>
                <mxCell id="68" value="" style="shape=stencil(lVjZUhsxEPwav05JGl3zTMh/UIUJrhCggFx/n964dm2NTFO8LWZa0lw9Le306vX+5nm/S+H17eXp+/734fbtfqdfdikdHu/3L4c3fO30eqdXd08v+28vTz8fb49/P98slsvXj6dfywp/jrhmUvKCSuHv8ZckKf7/4evR/uHweG7fJKfBvkhh9lVCGOxNWiH2UawN9jFLru8Dqq37b4Aq3Qigio0eRxNVAlCx0YWk0tmRolQX0yZGgjQDNEpqBIAklRGAKLEdktiYNm2iJA+1SLQBkIM05vS23gYoklkeuqTR6dwl8kzXsTRKlECihFrK4w4lS0wEoKJ1BMArVt1Z+hjWGmi1oh3SGFZUFys+9JurVmSGlXePUvoAaIE63SenEQa6QxZ1OzSJxIc+1VIPEjIFuI7rSRo7UpOqIwBRCu8DLEkcfehdaieAtpbaxmNYgpRGDGFivkYR1tee3wBdAomrqYTuAZ00NTLnyNWM9ijqu5kHUHJVqY6NT3G4iChJyrwFCVNOvjgAUFJNWvyIQ5gqietCvi6uTRohGg2+56zSRKhKcT6g5BkAUzN7QCT1Ci6tIx1bXlNzOQ/mmQkAJYkDrZRpBwYAM6UJUEgxWZgaAk6TTCPqtU5hZS1na17PE8d4wyYfUBqsR3HiqamZ06AyczsYn0HdD97FK9ajmGlOYn3Uo3VywtYmvFx9W9jPAIUMIaiROoWJEY0m0eQBTAygR7M7UqNy49OAhMROI4LNFEjnMPrQbWWey4A4zcUtM5cByc+gDwYpAM0B+KiGFM5j9S1igAEgwRxAKfUBkMYjgXmU+xBGFoDkZ4M3BV98GGOFHCmiNp0oC2vcLgOq71EIy0qiFJMXloVfg2ySunFVaZdJQPIomDAwmD2Y2tkXaaShkxcOWVe5f9E+TBcak0CSPIkrTHk2cYP08fwgkM5aza+/RJh0Wvb3KzR3JfnqPj7obSZiYvRaD0XIKDhOghUX6cDoK3kNbfRmjxJq7rJE5xRcdvcMxJjZ29rlmwP0PFBtvTh7xlyLLBzXD1QV4v6bg7Nn/i4z0K8fuRAOxdnToYzrQvL2pCNrXnn57DzsjWEr+JN9ZjfV7dZ4sm+kw9o2TU/5oi9PNnUA5dxPv2x9aI+P0zPa3eHh4fgKd/5//+yGn45Pdnr9Dw==);lineShape=1;" vertex="1" parent="1">
                    <mxGeometry x="252.01170241675163" y="218.14769787442663" width="4.983040818268658" height="60.41015814107756" as="geometry"/>
                </mxCell>
                <mxCell id="69" value="" style="shape=stencil(lVjZbttADPwavxJ7k/ucpv8RIE5jNI0Dx+nx96UgrG1S0gR5k+0d8xoOudrlu/fnh7f9LoX38+n4c//n8Hh+3uVvu5QOr8/70+GsT7t8v8t3T8fT/sfp+PH6OH9+e5hOTk+/jr+nf/g744pQrBMqhX/zNzFSm7/5PgNeDq+3gErFAYREACBR6waQmDhsA3L3LmWhBCzkQp0NoDAlEEMS71JtlBoAJBJroWWqZRsQ20jiAHCgGrcBWgZnIJBkYCD5mGukAgxEJok2SYVShzHXZsugSQIupUZSfKERlVKnZgHXtK0XOlNINkuUGVAvegOXmNbPd1/mTiltn68LWqQAHap1sOYC6KMsqwBlge+FTh2kqBViC9BeyKBqykt2RKqUQdDMFCyRmmYVWBClqu22JrB5ulZVbPOoJACqdqFi0yqROnCpK/OsBdGgQVpjCBSCRXQKQJTURLY+9USMolZVtD71CkutPxcHEMi+vlBidRK5pCEuASivohIQvEsdaL2UQc4LoI00bJGpWgnoGQMiVZelAJt6AtigNaoCVEMWQjkxHmm9Bm0t8OdpdQ3BQ2u3Cue4xPoXIIaJm+wtQHpXHzTLoOMWvcVWWsJnPZqtS5q3CGJY61GGQ3SSARtEj3BATA3mGkJ3DwRQKbNiqXloqEezXxzUSTTXlc2uR2/ysE4OFZrsTSDdUG0MfREEsvBVAEcftVKeQeV0zPUFmwIoROWRxQtf45gB64DgR7WOuY723ELilsoyir++zQixBei+Ahfj6hesHGFaJwtWBnQBQmktC0CslIDQ6HJR3HJfhkBvZSnYwuXLtN+6DVS3t1YcdF5ZaBpadNmvTMouZEGXvOTEMlPBy7rbExkP3uLJquwWkNWF8ClXC1gd6mDyDVUjujxofHbqlkYVSIZ61B1VZWjC1uUh2SLoZoz21tS9AqhNpKzKCzfX9aZbEKB5QBlZWD/P/macxja01Z3NVi3CCTpt/nZaBbhGl0t41/MBnV/crvAc0VZ2ChlgF2jfuopFyuj/mWJy+YS3N/HSoqRG8Wr+bZfhfVvPuw2G8YsPGXy83iZRE3/9VcznAH24vvl5Ory8zC+Obn/3b4r0q/ktU77/Dw==);lineShape=1;" vertex="1" parent="1">
                    <mxGeometry x="247.3862727336932" y="215.88137804816267" width="19.92723946929934" height="15.92930120612383" as="geometry"/>
                </mxCell>
                <mxCell id="70" value="" style="shape=stencil(rVjbbtswDP0avxISdaOeu+4/CjRdg2VNkXa3vx+9QGpEO8fBsDfH4ZF4Obx5Cndvzw+vu4nd2/vp+HX3c//4/jyFTxPz/uV5d9q/69MU7qdw93Q87b6cjt9fHs+/Xx9myfnp2/HHfMKvM65WCnFGsft9fhMohr8vPp/lD/sXI58GeaGYoXwug7yPlAUCpA4A9u2IVYB3jpwbEarkxhV+tDmQMAQkHgHS3HANwKNKkUkcAAjVUaVYyCGVhHIYAMlvAfyoUhJKwK+1UBgjlyO2ITevd0CliryUiMcbSiRGAHXiaHTpjl4HKDUMWwMFQG/JxKMNUqhUAPBN4wZQJYO/DlAT02iD+i2DDMppAagtMquAVCiNkb5IkVVEFCreXsHA6lDJj26a2QLYN2ekuSE2T68DVOM8AhwVYIPnVlYuIueBmxzJWPg2uKQKGbIqMyKSN/lWlFuAGK7lykUyFMALtrQogRKQj41lXZ5b1NeJSp6tPEqdunI+6iQaMOetAaiC+UA1WA85dENqDu+ARAG4SAEmDzRmggHRBFlg69HmFwygwiirl0zrEYdVcrYgaYlCvFAWBytfgAnqVF6cD3jEVKs1oKB+vmgKyiyYZxxtCBjKu0VeFkA7R2nUv3QPXNHfslR5C+T1X6MPw6656FBznoG6JW20ucxj4B+/DABDQmhempFQLUYdTZNATKmIbej7PwDmRV5WOOHNXhpZJNzish61TpoOSCQgbDHaCU+Up8BLKS6acp9m1onh23jWb9D5C0Q6SyvoFy3ToZbAdjbXcYpBLs8tr9o4oKY5h2kxEiIbNEzelGwHp1TVOJqxNsP6JbGNyR3gyaORMLXz+qStRyAbsu1TMcMdSQFpZKuuFwkZnRcbj5BDNygRzFoY2sJxDWBs2FjCpA+MN+55CjBGb2ySCjBcwqvqUh6vwpq/xkc6gqIgiJ3YPKxJmr3GQ8o7QCMtD6YO99a1Lu8tsR1eprj1sQ95tFXUxayzIZ9an79Rn2zjtWFvsZ12w5+6Ytfp9njVxVKE+fAvn16wvD58fOd52h8O589El//b70L66vxNKdz/AQ==);lineShape=1;" vertex="1" parent="1">
                    <mxGeometry x="240.13145132654063" y="293.2628182342394" width="22.19948664284991" height="36.8682694408113" as="geometry"/>
                </mxCell>
                <mxCell id="71" value="" style="shape=stencil(fZbdcgIhDIWfZm8zQAg/17Z9j85U606tdqz9e/tmZ0c0uJ47xP0I5JwEBl59bp8/1kNwn6fj4W39M76ctgM/DCGM++36OJ50NPDjwKvN4bh+PR6+9i/z74/n6ctp9H74nlb4nbmSKZeJCu5vngmZ6jzzNAO7cX8FVKEsBuBKrgKg9oAE8gkCbLeUhEoEQKSUDZDLeWYRKIl8MEDRmHwfyBrBG6Amyu4+kDxxMoB3jhwgYu7TVAsVkFcWCs4CTBEoF4RctKeOxHIf8IXYpikHikAIf+MNUW94AGSSaoAoFIE3AlOyeWU+p2E5S9yfQZcQILVuQOwZdJNoS9Ls3wA5u2XZTIHECqeJ9kDpSaauRiNVcAY1QhdBzeLBli5WazpkSsBLV25uRaqWRyFawTQzRRIQYirJzq5atkBqLfouwqUxLBepthWb10vrWZY6UOAeyKCCtDV625mm9gmUC4Wc3VLJMMIE1BsA2FW9JraVlQB7n3c9oMKhCLEvIM1zBPZ25/umNQ1tVEC2G+fFCC8g398O2hNQuQlVu752DBfA+q0ptnqO5JFmeuIuo9DY7KjY71UxdJV4EntifPWorW++R/dC4t7V3DlIB5cHx2bc7eb3yvX//QNFp+bHDT/+Aw==);lineShape=1;" vertex="1" parent="1">
                    <mxGeometry x="261.3518073745954" y="284.2413947366289" width="2.748552807126597" height="2.74425659785747" as="geometry"/>
                </mxCell>
                <mxCell id="72" value="" style="shape=stencil(lVfLctswDPwaXTEEwec5Tf8jM3FqTV0747ht8veFRpUqQsq6uumBJbnAYkl28vB2fHo9dN693a6X74ff/fPt2MmXzvv+fDxc+5s+dfLYycPL5Xr4dr38PD+P769PQ+Tw9OPyaxjhfcTlTCkNKO8+xi+R4vjh6xh/6s/L+EhVmnjO5AIAhGm8CeALxQwAmbg2AEnECFApt4AQKLvPAcWTcMtZKHkACFRLA0jzENuAQtzOkCpVkKUaLaDwlIZNADtHzjWIqiQimCJbEjopBDCl0AIyBQDQJf8dbwYUKkBMmhRnAFpLMEPUNLViWuRhExGYgtgpEgD4SuIsiQgq4d2KhHYE0CsHSmIL4YGaeFbnotRQHNpCZgYmD+TntWFabZRKEQAkrgCFPFhSKFRzC1DnAaS1w9aAWIANJBJvl4SyNCzAW9ICZhj6pdi0OgGAas21zqw+A7DRkloP4KC/vVFrogI4lGizpPJGTZ1l+r1ooAjMMlYqq45DHEKkUi2ggBYVmfprwQHN4D3llZMhw2fd5UzhInQyXmdJqCAT2A1gazNqt0hLxdp9dhQA52xdSTswozpTbZWnmygs8+Rx8y4dJ0bbVSa3OgYE0Gxqie167pwzmPKug8xqv8UHJbYWrPxBNoOVg58UuN33lNsOYCogl5xsvKMK4pWbSyZewOolWN+6sysLRd4RH/20Z//fepKzloL5pmzFjPOppmjEjMule1Pco4bdp/K78frw7wrw0p9O4w1i+d9eGfTTeN2Qxz8=);lineShape=1;" vertex="1" parent="1">
                    <mxGeometry x="126.166288362552" y="30.96619947910392" width="1.8187004292203397" height="12.600045788354409" as="geometry"/>
                </mxCell>
                <mxCell id="73" value="" style="shape=stencil(lVfLctswDPwaXTEEQBLkOU3/IzNxak1dO+O4bfL3haqRY0IuWN1kGStgl3hx4Ie3/dPrbqDwdjmfvu9+j8+X/cBfBqLxuN+dx4s+Dfw48MPL6bz7dj79PD7Pv1+fJsvp6cfp1/SF9xlXI2SaUBQ+5jcEwn9ffJ3tD+Px1p6AQmOPEUpyAGgBxMD534BSQdqImCCKAyiQUwOIBMEDCBRpAAmhFBfA2ACysqo+oA0pV6jkks6tSqKfcDhUBmpVKiprdACyaHIFCFTn4DAECG1MNbsk1AWXFqAu0GVdjIcC4ugqBUJuAdXNjcyLijeA4niIshzsNb8/dbiLYIRYrQuPBApktgBySAhgtiolR1YEFHsMyUnvYCnrOSdPI9syaloY3Y+HQcwxx+Xg7wLo6v8GQA4g4pKYVwC7FZ0KYNgCEIbIW0Iq2faMDmkV0VaPL+uUZsaDf26aNsVwEB9AUOKWzCu0tPb/TO2s3wsW4BVPIsgb6zNDRuvCawFaP3VVn16TwQBYrUweCVpF5PfJrY14qz1Zwp3RkEHaTO3MHhUobppuSHakd+YnrtKiM6EVgC3nzg6AaEd6Z8tQ0tSq1Ntj7DDsLEpi7Tub2Kq/+Juelo0179A1Y1DnordeZLvxBLcGpqmTjL2nJkfAYuzRUTOupprfVtJKTt8+Jyj2+148kmy++Xy1BOMWPXX3Sm0T8s9L5yO38fv5sPli0bXXh89bzMt4OMyXoNv/7a1HX803Jn78Aw==);lineShape=1;" vertex="1" parent="1">
                    <mxGeometry x="128.9191362031936" y="59.272186659810814" width="1.2032714884135831" height="19.517038436721784" as="geometry"/>
                </mxCell>
                <mxCell id="74" value="" style="shape=stencil(lVnLbhw5DPyauRJ6Szxnk/8IEGc9WK8dOM7r77e0A7VbVHcZvo2npyyRLJaK6kv88P3+87e7S3DfX56f/rn7df3ycn+Jf11CuD7e3z1fX/DpEj9e4oevT893fz8//Xj8cvv72+f+y/7p36ef/T/8vuFikBQ6Krg/t29Ck+j//+bTDfBwfdwDnLg6AaKXoOeAUCX7GVAkJALIUnQCJCdKthSiuDIDsrRKAE58mgDZS87nAN8ktRlQJTkCqFLzBChBcqOAMtehVL4lAOYYapDGY9A5rbVJI1sK3gJaFM/SWm0dWhm1P+ZSkjKntTWpZIUUJccZoOLCOQB1VW9XyKRwWQf7N0CiWSpZkgE4iZEAdDze6lBox6GuJkv4xhcCAPvnFcClyADg0sJWR2KoKn5eIfMVkBM3r5DD2OQZwIoAVIPFgBad+yH50bRnaU1zDBF5I9RApdu8ArRQGZewpbkfAtclsNX0NHowk6Chc0bIIAuBbCni8VwHjzqQFYKOxxsAlSEA5MRkyWepDBBG1ndBs8Lh+IgzNbrwsKCL6NxAOOMqXyHPQSOqTM44MMcbQJBAdAmP1ZAvcqnEkWVO0SSRrBCKVW8AMlPvKG0BBNKiKJMhH2Jgyud1iMrOOig/FGuzdWBSCUBe3EwihcOhGAw1ilSSVsRguYTaM/uzyExIQwvP7I+ldxwe7RjQhlHYASKpdPSW3gAwIQMR/BKDsp7OotWmNRHP11vUiEATz1u0mX5wXASgQgv5Kuu4OGRrR29P6I3/5+cYet6Yb23ikgUwz9ezvqyQ2Aph5GQXQ2H9oNYJ9AGBcAkN5NTWofGOeycgWm1FVGzg8KC3OYEKFTK/zEA6uHL8+2z7J1PqdSM9V8GPFj/TekPVN6ito1Ve/78nv4eT8qbIw6gc2xIY0Hn/RQphHXyPtQBu2I4zZ2X0xYPXBFA3Um4ApSlqy9TaJY/5z2WAC0qPHk3jwN/1JpvHFEfPvCWMucz3eOdsN6OSLE2qNog+55IlsCc1gEL3pNXa9AJVJUKvi3krhYok8mpkuLpxyB8DgnVKlbcnSm2C7hMcCRpjcJzr0DIfyKqNoW2VOQYgifMKGimgzyZzWpHoQmLI2x3MBtAR1Zlo2MnBvSFL2EG0S7Q3jMysY52P7IbCWRcNPjrCPsiKMyukcWdxXGrx5mTYro6OYx7XFztmMFvvl9sGR6XVWaEEtzPZz6IYaB52hbM93bozUcFwdjrMm4IcV8xapBzpXSC88Ew60LCQ37dh3neXACze7hWWy0llgDSuj94xw8xbwrTK3AVyai4yAj9IOonWCYO1TVimpEjd+etZubNgyoaePKauHYDpF3JiRLsDWJaavRTrW2KdubROn5LYDOPH471l4BcZ5lhAHdgs2S8BDCDTbnsdQHZjFb01CMscVvkc9u7XAW8D8OH17cPX68PD7eXF/rl9W4Gvbm864sf/AA==);lineShape=1;" vertex="1" parent="1">
                    <mxGeometry x="127.5387807862985" y="93.02354570788538" width="11.25582910227077" height="19.491799477058688" as="geometry"/>
                </mxCell>
                <mxCell id="75" value="" style="shape=stencil(lVfbchoxDP2afdVYlq/PafofmQkpTClkCL39fbXdMcFiOcu+LbYOuh5JHuTpY/vyvhm8+zifjt83v3ev5+0gXwbvd4ft5rQ769cgz4M8vR1Pm2+n48/D6/T7/WWUHL9+HH+N//BnwlVHqY4o7/5OJ55c/n/wdZLf7w7X8kyBO/lCId2XL5Vy7OQ5U2EAKBR7gI/kIgBkSqUDiFDyEOB6DUHIIR8SxT5G0VMGQVKATx0gMdUKAc53gOxanO9q6J3OmUKBeYiuz5s6DUyq0vJ6AagG4DQ7R65XURUBMqfX0jtRSwvcPSeKswAU11xaYi8AjQPQkIQkW0AFiQiZfF8bV3GYRYgyqFoVBdSrEiaJBQSgIRMnG6UMnGbibOWRB866rIlkUBmh0fEin1qU5+0RyibNsXWpWYC/IagCGLAhKB2NSaGdzAJiIXZrAFnpIzcm4RYgvMZpvbbswWHVqslGA86blkExPuDCqJ5KWFN5xZPc8BOVdiq2jS2QRzt1WsnPRImtCtQClD/1hp+oybBrlfBgG/M3FuE+OduIw0p50LiVbn2aF0fDyuEzdgAzD/F4U0A18xAP0FFD78PCiFaAWXwWlgD2VFetGQqQ3umFRYa5ZenBVUnz4NctY7av4mWv2haGd0k1x0xCpojnQs1GngGTudpV0i2NkVKNvIBwSmzmfsozyFeIdojgThRD6zuPyadgZw62R2cU+xX+FmdXQhzPcavt7cH5GndUHh6vh9Vvl0V5/fh8KL3t9vvpnXV9bx9WejQ9yuT5Hw==);lineShape=1;" vertex="1" parent="1">
                    <mxGeometry x="126.92542291362065" y="139.4234553449843" width="1.2182354463308505" height="23.807932059192684" as="geometry"/>
                </mxCell>
                <mxCell id="76" value="" style="shape=stencil(lVfZctswDPwavWJIgOdzmv5HZuLUmrp2xnF6/H2hapSIoL2q32QZKy6AxcFBHt72T6+7gd3b5Xz6vvs1Pl/2g3wZmMfjfnceL/o0yOMgDy+n8+7b+fR+fJ5/vz5NltPTj9PP6Qu/Z5x3jpybYOz+zK+YXPn34usMOIzHFaAWyr6x9568AEClGlpAJokQUKRlFMg7SCnWBiCeIvIhUzIAPTNDgGspBT0TUUoUUwOIiSqiFCjGBpAiOQYAb8OamSQAgKPSJi5rKpHTzlIqgcRDQG6jVAqVehtQKuXWh8qUAKWSKLeJ08ygPBRZ8voBKCRArVlP4BZQyaXbgJTIZQtIIEpRlu+tABVQUm0a8U0AEFaOFKIFoEx7odxRYnBCJN9FNQGxuqUcV2kr0D6Y72v1AAcClWTtPXaYDSGNGQqpnhAtwAHhicrMuBBgDiJT8BZQgI60P0RvKXkQVJU2VwtIQNpaPIltWAXVsxaPiVImBpRKXIpxJSRUbblS7AAFFE/qpo9KO4DpE7WhdPVcAKUgtmOsZup1MXUDruLxMw3Mrj4DmCa5S1zBB1yxRxO32xmmPIOg3mtfuv7CcGXwH8pfTZ4MhKceG0Y62zxqAKr89gSdnmhUifY8A2BiBNDR16oiBdj0RKy0N3YMBZi2urHFKKXS+rCxJ+neVQ0Ab2IapdRS2tj1prC2gI1tUgmYlWFjX51OuGchnjw0CzF2OSyl+2nvQZ/XkHObZrdsr9f7UTcX3NI9bg2eKsYejZHk7f6Cu5124GD5I/uc7bKA+Wjh1nqHv7o4s+WP4qkzz5n+DvOlrdPwwXq4+wb2HwB9+LzwvYyHw3xfXP9vL4j6ar5cyuNf);lineShape=1;" vertex="1" parent="1">
                    <mxGeometry x="129.57811683792033" y="178.48291575565378" width="1.4340519213457246" height="23.74644357471668" as="geometry"/>
                </mxCell>
                <mxCell id="77" value="" style="shape=stencil(rVjZbhsxDPwavxKSKInSc5r+R4A4jdE0Dpz0+vtya2htUpsJCvTNB7nLY4Ycacc3r493L/tdCq9vp+PX/c/D/dvjjj/tUjo8P+5Phzf9tOPbHd88HE/7L6fj9+f78/eXu8Vy+fTt+GN5wq+zHzNxWLxS+H3+pVDlvz98Pts/HZ6v7ROlYuw71QbsA6Vs7KO+oLzvkCp1G1AK1DNw0AxsRMsjEnCIlK2DFiFU6FCrcciBBDkwpWQdhDKokkYcou1CJhFY1mjfUCO1DhwKdZt0bSSgDzlRsSFJHp3ZduiUnEOnBqBUhKqFRsujlZsOtfqkW6UC+iB1VH11EAogJNEqWQdp1EDSwpQtNCTBKkmg4PpQqIBO699i31C0cSAHBULt1oEH4Lf7oFWyjMuNGLxBwewomjMFhFYFwkQg9AadMsXmwNppNAS0cRZ8vOJ30yE2ymKnhsCQYqRuQ0oJMq76wRo7nGM8DcpGFSApjpKv9hUSWoFnyRMzfL4Obhd/IgZki1QsdaI+Acy8PJi4chNzmZItv7YLVF/b5dKtsFtajJbc8yNYItoc195GAQE0UrT2HdJeweUArRlBBvAo3+rAEA/LGxyAlER4DboBHwUieuGYnXVKgYIgXShMux+NLq1JmhwE0F78uF5gjrYgRfEZRDRWhhi6KlEG9lvqiEFJgy+QNjlCEruhFbGY4pHdBaUBcFgXsg1fYPX7AOSFkx08XXMr4u3RBBKPBhnC7b/Yq4YKU3cTGCp5GkIKECQncvMV0pSR0tTd7TQUR7iK6zTnOMOiqsLp0+6OAEKL6nPiVzENQlLV51BUsLxubYzy1UHgoaXzBDxVVSCHLp6Xgo8IXU9BljhNq4QmV5iovGhTRB6dJDbrnoZw23aIYyOtDpoWKFObz3Yd8rl2T9CrtLbxOsmu3uAezLNDgfJX0en2oJaJQRIqFJ1e1kagGaxa09W16YkSaQXxW0GPUowGXxgprnitUI1UjyUlRAM5p3EwWynaP9B2bg3qZItITXkgMU44+QO2qqkM4tHDwDRX0dRTndAcUPMYnO8pEfFyEx3r4iRPGctN8QEluBjiNPIibvCqvS/2iJf6txODAeqWJb3s7FEDlDMteHsUj3gGhCE+t+27R0TA11JxjPNLfdBxYrn28v1iEP9yo2TtGV5tqH12SxNeGP3ztd2H9vrhckf4cHh6Ol8xXv/v7xT1p/N9JN/+AQ==);lineShape=1;" vertex="1" parent="1">
                    <mxGeometry x="176.81293527590833" y="26.27343977367309" width="9.342038909655207" height="15.944374123444716" as="geometry"/>
                </mxCell>
                <mxCell id="78" value="" style="shape=stencil(lVjLctswDPwaXzEkQBLkOU3/IzNxGk/TOOO4r78vVJeyCFnb9uYoXBHPxUI7uXt/fnjb7zi8n0/Hz/vvh8fz804+7JgPr8/70+Fsv3Zyv5O7p+Np/+l0/Pr6ePn77WE6Of36cvw2veHHBZcLZZ1QHH7+eUJSfz/4eDn/cnhdno+U23A+Rkq6DUhKOYyAQoIAQpkHAAdqvA2QRlxGQIYmSaJWB4AEigIAZsB4w/QKYBKrj6oZmTIAMJXxBoubJgCYLZ7zlqjGbUCcDeiAEoiBSQYoY5RKoQpKg600xhuUSZAPxYdVlUKAiQvjDTVQRbUUqTpAogJMyoHEARRGyYLY4giolEGUNFBhDxDgtBZKYwNVgWE1QB1v0EoMSsOizmkEBMoFAsrodGFi0A8GqI5lhBrouOmGEWD9EJEPpVf/DGCYOBWKY6bFyhHkoax7mqkCH0r0tcQNMl+e3zcDCkxcWrEGC6QZYyFXrUY8EVSrVIorMs7oBu3UO9N9JUXsXSmMxRcxzZgPOoY1Zlh8FiXHfBEXX8o+DwZA8yG13i4zgHugb2daiFc3cAMAIwF3Q+qvuA2ofUAtolRQta6YL2p/sgXwSqDBas2tGzDXUqSAAOrDatWKeMlGYBmp0vpBQU+bmgnuhkSCOk77v5cAVBrSx/jSJOBDCqTinS6o46rPg4U1oo5TP6ctcWigGEBHp600Em5RF1YrPqRmbE6vyxvmIfWYLBoI5mEesv/aorziJSMBVEt55YNQRdWab/ASAhQL4qjIjCoRt2q+IaUTuKFaTFy1pj7qbwOal3A24zKIUkveBxN1Anxo6qNkBa+AKpv1w9hAUw+CsdvaSkqbuAZRMgCPHWdsG5APzfOSSemEAV4ZJ5jpGEJXzrNKjFCdWJicdjCl21CYVltTEwogEXXFlZZLRkp3ZdKUGlB91hDVjaBrHLYGr9MzdgWacmkeIAsnGiLL3IMyA3J3a2tXdEtN465wtlY/dqm23Q6YZEyXV1tQRaO9F8KilgJywdO9Zkgzq1otFUrv4GlsWjfA/DHh7fqzwBSIV8WToEOs5+2x+YX0YYydsRa7BgqQjUunfCT2Gby1rDenfApUDcbryQmZCEWxOe1lt3ZWux1U9iZNGhdlwRrBlV1flTeXezesoCqxPUDdgIYhMo3hFIDt+uh89vo2QJI3LZn8eSQwrCiF3XnIdbGvRYv3o5XBEta8/ehTYFrpSAro/dl3QYSi8Nq01/xmtCOpZ16BXTydd9/cYFP+96fSv563H9fvsk+Hl5fLZ93l//13XHt0+QYs978A);lineShape=1;" vertex="1" parent="1">
                    <mxGeometry x="172.63201463371115" y="62.713020327795846" width="9.261763068478354" height="18.668749696877992" as="geometry"/>
                </mxCell>
                <mxCell id="79" value="" style="shape=stencil(rVfZbtswEPwavy6WXJ7PafofAeLURl07cNzr77uqQEVcyhMU6JtMccw9ZmapnTy8HZ5e9zvPb7fr5ev+5/H5dtjJp533x/Nhfz3e9Gknjzt5eLlc91+ul+/n5/n369O0c3r6dvkx/cOvGRcS1TChPP+eV4Ry+rvwed5/Op7X+yOl3O13kUIAgEwudQDvqToAqBRNRAxPiH5IoZAvAKA5lw6gVWC5D0ieRDpAFPIIUCj0ScdKqd4H5GBzSFpWUKXCVGIHyEyR7wOqaykuAK1SBABtXB9SCa0zmwDHTMwdokZyoBG1tJAXQKIMsq6BuK+r/gWDuhZNoqdrrW1luxEaklhAQa2uxH0jVnXYpl+lPByRQEzRWUVo1gXUVUUqBpAh/YKjXGwjEDkUML1bAwJlkHRQWzEhqYQQoA6tdtA3VNXJhMRUgZWpwlK0gAAAeWHzGgCqpILxMoQEJKQpGlVPK0hBeThBmt9uA5TNzjYuYYDlklIDaTRSGckHTii1MWdNb1TWUQ8VnpA9+R7wkUbV8XOyRxQ0hELzobXRIMkN9qpZOw8AntLQiIw1ahUUm2r/G8D3dC2RIuCGDmbDvoytT4bJmx28n3gdar3hp9Tqtg2QAcBwBrlC0tN16j3ogxMK/QlhsaptBVHoqaRly4BKsdnc6sKUUVHt9UdXGJjMYtSrK18EI3G4BggV0DKm1HPCQ4/0VvyeGA3PNviW4EmQezW7bdsZDk4XrGEznJv62vBZiwXCmXpr40G+Jc7eqBiatSRbTc0XtDZwuwy9lxNdhEMgZ7jTEtren+yI9dB2//nz5cP9+vD+rfRyPJ3mT631e/ttpUvzd5k8/gE=);lineShape=1;" vertex="1" parent="1">
                    <mxGeometry x="176.19901469814022" y="97.54923881505766" width="2.8108969561692683" height="17.22929027437658" as="geometry"/>
                </mxCell>
                <mxCell id="80" value="" style="shape=stencil(lVfLctswDPwaXTEEwec5j//ITJxaU8fOOE7a/n2hUekasAVaN5nGiiKw2AUHevjcvnxsBu8+T8fDz82v8fW0Hehx8H7cbzfH8cRPAz0N9PB2OG5+HA9f+9f598fLFDk9vR++pzf8nnE1gPMTyrs/8wqBnxee5/jduL+Md5CKiEeC6gyAB3QC4BGcDUgoAQViMgEkAZQgFgOAULMAhAApmoeuVQAiAdqARAKQEAKZnxRkWlOBap2BwAUByBGKVbgIJAtd0M5Sbu87AxJQXgagc62wDVFT23RpC5Kn5pVocKNUKGoH5oZRiFzAJQmo5iEStb8vAMUAhAxecuMiDzcRxLWueoscjMRmzSYGoMGmDJh0lqymRsCsy4C4HO/0kZlc1Xg/d5dkEqtOtphEkFWZecXgqueGrxrgDM0I2D74DPBN2G4CYtEy1gFkag1/5ydN3YVrDj11dFmT1olmage7bkybos5gE4NzUqQqdZhXWLuv+tOiNstidBpgNU/kMq3sz6QNqCMB3D/1qj9tpQSsOk2WjF1ZItfhn4YsNOg6IV4bz54umdexhqCHho73JKiSFR1z4+zJbu65pxb5nj2Dk/nv+D+7jiREZ8DImqOdCYZ9U8Z3RqTcRrR7ZzA9K3SGvNiyfd8QyZYpy+shGNlB1DMqNiFb8ksXVbyz+jfo8c6Z3UhBp//cz7fZH7Sd2QIUo3YCOz5FLQ/293AzOR1vnZdFuq7JZymaDna92DWydA2bD6vvLN14fvh/QXobd7v5fnX5v75Q8dJ8GaOnvw==);lineShape=1;" vertex="1" parent="1">
                    <mxGeometry x="177.50684817736578" y="141.310907391211" width="1.3519400104356967" height="18.3313324166478" as="geometry"/>
                </mxCell>
                <mxCell id="81" value="" style="shape=stencil(rVjZbttADPwavxLc5Z7PafofAeI0RtM4cNLr70vVWNvkWmMU6JsscyQewyFXG7l7f354224iv38c9l+3P3ePH88b+bSJcff6vD3sPvRqI/cbuXvaH7ZfDvvvr4/H328Pi+Vy9W3/Y3nCryNOmHpYUJF/H+9USvHvjc9H+5fd64V9LJSTsQ9MJQNApMwWUCgwADBlMYCYiDsESDUACcQCAPp3tIBOscAYajOAVCmgLOWRxAHIiSIKulHtBlA0rSAGidRs0CVTbgBQqWVb6EAhrQNSpmjrUCuVsA7IYSRxAFokQYDmqdGUGiCGUqin6Q11HVCZgnWpamVAWmukbitdOjGgRk0+rUWogRjUAbYuaRrSDYB1SRPdQMctAEsNLWVAQSvAplXaSMMqwBZO6dhBiyrVin3DoiMgrUrmZN+gTVtBDFnLZOugMtMAvTWJrqeDUAIxaMt394ZIBQGUGlZag3YISGvS59nCdajFSUNw7L71/GCfn6ESJ/EaI9i+eP/DaPDrJeDh7rBnSoAUqqESnT0aDNpYbjAwbP4SiV3BKAEKlan3ZQyWNfkq7PLPQB9L9Y1cb8ljtPnpJCjeNGThkqDIoWlwLi2Amqx6j5YmA4KdZXJJRtKuc657TisADX/VQtc0GnQDQWsXRNf3PBR5rS27DbrBMqt9s7M/33Io+LZE0qgRF5dTqO6aUtcGTBUVOXphZLhYKCnY28f/aK8jeZK5AjjXVKWmAiOStja1Ad4qeh6UvJhmaJXqOn/d+GtDC64CAvM0khOscu/UbR8khjN8AdgZrhMRLV8LYFqC0fxQQLNvKKfTyVqaqmVqaVCBtRAuaCVLRABds23llC0Mlq/Ofr1rFW7+uvKKBXSBW3Ntnq69DgG5rtptiPqZ3ye2rA3aasnU8Rasq47YyvUCNUCKz6tmOqLzDvs0aV4FnQqn5UUrh/a70Lzs1QLJdB5lJwDDI1jzIehRoSKh9yKQC9xHTqetU4M2KsAf9scvPQYjoZ8lhkcVV+yLnWvqYUfnch+vyiqSsDK2xcvBDFiqy0p2CaKG7Os0+ceZYY1B1e+nSFGXdbQ7+wT4oAlKfp9FQ0HDy35woraP036qgxz5P53fGW6DctoLzvkU0GByWr9PBIL+yNQAAqVXoieoyhi2z+4kDuslYfqYAPeKf/0Wd9teL84f/p52Ly/H74aX//sPhXrr+JFR7v8A);lineShape=1;" vertex="1" parent="1">
                    <mxGeometry x="177.70112851027898" y="181.19225208528235" width="8.872944307097677" height="16.608936570494357" as="geometry"/>
                </mxCell>
                <mxCell id="82" value="" style="shape=stencil(lVjLctswDPwaXzEkwec5Tf8jM3FqT9M44zh9/H1XdSiLsLWZ3hyFKxLAYhfURu/edg+v201wb6fj4fv21/7xtNvol00I+5fd9rg/4ddG7zd693Q4br8dD+8vj+e/Xx+mldOvH4ef0xt+n3HaJLYJFdyf8xNfpbl/T76eAc/7lyVAxeUBELyksg4ISaKOgCwlEUCQWgaARvGZAlIYABEAEgMAedwheWlshyjZD4AcxJEY1EmNA6C4/orbgCJ1rENBlkgMMUsY01qdNF0HpNzrOgOCaFgH4MQfIS4A7EhFbaVLkkqCngBjlnKREgkA1BhjSE0a28GLjmlFpR2pdK6dCEsukSxllTTuoKgMiSFFy9bQJFdSaZU8Bg06RlJpdFwaAb6IJzsEb4P2aFoC8FANs4OKJ3WAqHgDcKKfAEw/iPITmZZGy5KyQQJ0XM+bAZrlRgVwUkgNIAAhmPWOySpYkcz6QM6jVZIpmSjhdfS9E2ea0vyDdM1IpFQieOgS8/5K84P1YYzXe8mkbSLqM2qFxysII+BswThbpilScH4MAW3DGlN95/zCO6nvZOsK2CEx34HZRhuDZ63vulgtGpM5G0780VaLOgRi5wA4W2glxEBjutEUZnVa0yIdiYEcsMaMUkzE4tk4Al6OtEDKCO8w73g16x1bXyztXHf21fXVriekS6Ur8yX/jazP11I9G9Bty2zWlJFRR6Si5k6Y5YBHONe8BSivcUt9spnFfVaD24DaxXwmXaAu3poUM+B57jdu1vPlhEcaAVvYkbDS1kQQVlJTF+XbALUAPAnkSBUeOZoI9mTNUK5cClGxI+XZlS6+z40wQradPVNjTpjtbN5yZ/CaCpvRAoRkFxJIXjajdu5XlBVyiBt7FKUuBBB7C8/rAxUxbyfCHOnt4uo8uAywaeeK27FQEXPWRGC+LF5vaaSBSkyy7QxTYEbrcU8wppDp2I/3NTMsOHoTwXxXzG2q6+zt9bhy2nmWzVOYB00EpZNwrQvMCF+oBqNAzp4/sHnN2ZtXo5INgTa2NjUFawG9mu881fhpQjU1DrRk8brGsSvBGiCZIyV6qUDQpi9BO6ZdmMqDiaHy6eK/P9d8DsCPy9ehp/3z8/nj0vL/9msSHp2/ROn9Xw==);lineShape=1;" vertex="1" parent="1">
                    <mxGeometry x="235.17530593863762" y="21.37550398910429" width="8.334214059686301" height="12.340739596224333" as="geometry"/>
                </mxCell>
                <mxCell id="83" value="" style="shape=stencil(lVjZbhsxDPwavxK6j+c0/Y8AcRqjaRw47vX3HdXQ1uR6J+ibs9lZUeRwONIu3r0/P7ztd8G9n0/Hr/ufh8fz8y5+2oVweH3enw5n/NrF+128ezqe9l9Ox++vj5e/3x7Gm+PXt+OP8YVfF1xq0tJABff78qRKzX8ffL68/3J4vX4/SujqfR/Fx21ArBK9BnTxiQCCVL1CSOLcNiAUKUEBopNeCQAr6D0jyMpWcBYw0tC2Ab5JzxrQJQcK8DpLOUspBFAlaUAJUsgeBkCntbT55DagS9GAmnhai3inAM2JI1yKUZxOa4vSCTWSk2QARSJJawagaUCWTrKUqzRnQ2okpJItW7HpQPqh+km1Ja08pFpspfGJSOpQu7SoK50nf28CEHHWWcp98ndrBV80AFkidQBzDPmG7hDyFaiGDinhEyStiDjrtIIsrKfRkM2oBnSE9HRC4XRI4C8DBIiArsNQKi5kXa8A5atshWxlBtJWPAeYkNyU582QdMcNpSJ1wKZb1QC0KNl09JLNfMhU7mOSbCZQmmTZmkB1BWDKN5hTbUiRbHpMg2A33UhaQebWbFor6emUbYsGL46tkCUYakRaB+yh6z2ALJFlCf1gAFUcGVmxTZ1bAI07gTytyBWATVFYB5ulNpXqNlv7aoU6h9htQJWcbJYS2cMYim1VBxZStro0Ks1EoFjlA5cab1FvehpsZYXDfFj3A2ErhNFkCR2XCVshvTVaAF1hpd4AdKbewToBbDqQTQ/ASsgYIK/sDyrN6F3KVNLrBiIdV+MUxgWAOU3S2oJETW+IJxuKrduQkOhAQuoggnHGmTrj3ua/F+vgpr+5bUOds7uGSSuE371bMsH/sCV6neq+OKwggaSpgxs6r3BErEeH69R0xRNPHBYsmQkJpWEjCNwwKtDBPqKVYJ/Tc7eXOcW2rLE5BKGWhbn1Yu39VS23JoQp9agll+OmRztq6fmhxhxfkSZH8uqdPR+3Sk1cnu5/eX8hy+0FJGlm1Eyt9KobSqPHB2c7uvh5XN6Ix9AiwyyxeWUTmipVvWRHA9xWYKcZ62MwXJi18su0vFLVTBbALDNuD3tKH9wGmGFVaSNgQjszrAKtMXxMNEdv2vxwuOYc4KWzgd5tjvy8ftg8d+vvL+fqrdlpSOqoq4L3LNG8z3RizJhkv8/iKdbmOTpBcDh1xeSH+v++Gv30DmCcPXWTRTplMSK9uU6iphPvO82fTI+FiKfo7xd6YfDfl4Yfvo8f/24onw4vL5cLzuv/2xtNPLrchsb7Pw==);lineShape=1;" vertex="1" parent="1">
                    <mxGeometry x="233.87606673770551" y="63.014955068524046" width="11.25898454884793" height="15.700483396121266" as="geometry"/>
                </mxCell>
                <mxCell id="84" value="" style="shape=stencil(lVjLbhsxDPwaXwmJ1POctv8RoGljNE2KNH39fWdraLvieifIzXFIiyKHw6FOdvP9/vbb3UnD95fnpy93v84fX+5P9u6ken68v3s+v+DTyd6f7ObT0/Pd5+enH48fL39/u10sl09fn34uv/D74mdBUl68NPy5fNOlpn9ffLjYP5wfN/baZPnfxj4WsUAckpQ+OWgWU+IQpMTJwZKkeuyAAPJ8hWQSGnEwyTY55CBaiINKCLNDlk6yFOMIYDiUKJWFFKTNWSpdIru0is0ONY8grztUiWl26OPM63WIkudKN5PGClckzCe0tTJXHUwlmnfoduyQgq9DA7rIpVOSNtehIW8krQBC6j5LmVw6F0nzHWqhhSs62mV1UNoPpY6crNBoEgla8XtlrkNJEkhaEXGtM7y7dHICkugd0HGk0qirzT2d6qCF6w7dozXFAfgjh+RYg7do26EVVFiYAzp4phkAnjkgrW0+QU0iQSsKF2e0gguNnFCKp0pwYSdZAviCc0jSI4W36ziQZyDQSHkEsHEwcgJa1IdkklhP60ji6qDS2Ano6TI7RMoa1kXnOnCmtCZlPqBKIzla7Offz1JJfyIec1CVShgDF85zPDqwfpRRN9MDjR8lc80ZKIMlMKL//UTYAtzQXcHoeE7dF1hHQQ5JfrZPg/WP7NtMd5hrZJjn4Am4UbJD/HXGA+RAYQlto0M2LRBZRkEU8wxBk0V2AuZq9Q60ZhgJuzZmIgwg7dXfgTELuqCoz1JmbdykObUw+uKwLecrYLaTtkFAwelOMQbT4IlLqTzCxPNFk8hghArNMALOWY3faI9ZULw9U5zFvPhSbg/arS6frO0heJ18rHRwtCDVdU2gPNGyBxCmZSDaru9PaHT49eRVvCqVCL16KgJImSjvfaigdXbo+ImDTWQnspcBSjq5N9+YEAHsiF5GFtf5F2nr91Uhrw6FbqkQd65yAKOSO2C1CfMJkN3KxF0bI2AFX+Rq0MYSu1kUGDYQgGu3xrOEFdONfQCYzR0ssW7ZgYqupHAYVG4qdIg7trDZEBKrQxmz9zqnmh+F/ZUtNfvnhQ2ArwO8eXWBpmKXWCaf+Vsr6+oxljZpTSxL/s7YajNr0bFgrkiqY/hetQ87nlQa/44AsGew2R+GGt2sj0zP6q79jS60aYylDb+w9XQnHzHZjcS/iCfHwp2uUbHsBGekg2FJ6V5/kZB0rdBGcrIDdL9SMK2DDcL8rK38FU/N2bOVAse7+I0qWlxPs7NnPIEau1cUo5Ic0m9nzyAEALhVHC3JaKj797tMtdTy7Op6bLxfHNk75q2SX7F31E6n01ufgV+3x4f/b86fzg8Plyfr7f/9GzW+urxv2/u/);lineShape=1;" vertex="1" parent="1">
                    <mxGeometry x="232.22455435147026" y="108.14497989741017" width="17.28581368732758" height="16.13280918187472" as="geometry"/>
                </mxCell>
                <mxCell id="85" value="" style="shape=stencil(lVjLchtBCPwaXal5M5wd5z9cZTlWxbFcsvP6+7BRZixYbbtyW0m0doCmgdnlm9fHu5f9LoXXt9Px6/7n4f7tcZc/7VI6PD/uT4c3fdrl212+eTie9l9Ox+/P9+fPL3eL5fL07fhj+YdfZ1wrVPKCSuH3v2+o9b9ffD7bPx2eL+xrIxFjHxPVAgCJSrWARiluA0qm2g0gJRJwpFypJgsQCm0boD83e6ScSSoAFJJgAUIpAUCk1AygFOp5GxA7RRvWGmEeNIjd+lCZAgirAoIFtEQdvyE5ZnRi5AP7PHAZgb4OEGIbJRacB01TNIBeKQeYabE+9E5JAJc0D9EDCohSqcSWrZ0pgijVTMEBMhXApSqULYAZUqM1imwTJ1QZAMT7oKrQQVg5U7T1oIcUIALcvA91ltR1gFAsFhAoA3r35Ato0RGQ6V6GRsya1kyDKGmamuWSqkZGTqsK2SilThX4wCtqqPAgmWmVmnU6BWqIS3WQeYpxoQikUtNUbT2o3BfggwKKTVwMVNEbqpfKPti42YBsVJkSSJsy0xFDywNVTxyqOJlHDWRZS8XlYCbluj1T9g03A71YatepKhXw/xwp2P/HzVDt2WU4UAcBVYDnUCIGpGOtXKtHcQ4d113uw8MJqNQB6VTxgiNdg62qZUrOBx61dx0QVkdqsKFrN5buAQEontaBH6wKnsQKsXNa9QMVf6FsKy3G0Sm2AN0eSVsRaM9ami6qDLNQuydGg9TWJIibeYjBeTTLbr7Q0gQpUBo5Zs+ZaYunbgZjXGoqzm64wP3gmj1umm7aUUYU4ICOKmy1VOfQBN4geUjDbDg6CgDOiabYdSiBhRZD8F1T53sGLNVXiD1TCXAYkTYEfQIaHApF9w/HowyLX8JoSRPQIfM0EckeSbnbP5heHFUFZq6HMdFdDOdotuBVn1J6ZcBuPYDYRqVedVQ+aQzKU17KRxLpZF4YAgr7glayoLDmVQWJjJXjOiCOeeu9ewZ4Ji0YXp8JbUlzr5uABheGODfHCUjQCV0n3ATWh/BcDysFW9M6fAuIavQzpK4DqP8Hv10otdDMuVIMneHQGhl97SwzKNCk5NtO6VBgZpe5WEXQlto9S3UTQetXXBVOLmO/2lzlrR7lABVPQ+TqYGm1+EqFHUDfAHKgLjoRXjYRXMvs53646pRVb8P3VLPLDHtVTGTPfn8McBuss3e/28PhYsVqrCttNZaHsfhsqW8vzh4Vve45TobiuB/asvcUgvdTustWby8gv2rPVoUyvFFYdmUbnwJbgdonq+wV8uF/L1I/tteH91vbh8PT0/nS9/J3f8urX51viPPtHw==);lineShape=1;" vertex="1" parent="1">
                    <mxGeometry x="231.58403914849214" y="147.44237660015665" width="12.05139603423112" height="18.22221512657828" as="geometry"/>
                </mxCell>
                <mxCell id="86" value="" style="shape=stencil(lVfZctswDPwavWJIggDJ5zT9j8zEqT117Yzj9Pj7QtUoFWF7Hb3JMlc4dnFw4Ie37dPrZkjh7Xw6ft/82j2ftwN/GVLaHbab0+5sTwM/Dvzwcjxtvp2O74fn6ffr03hyfPpx/Dl+4feE40BFR1QKf6Y3iWL89+LrdH6/OyzPZyqlOx8DaQGARjn1AKWWbwNyJom9R0xVAKCR9gCOxO02QISK9ABzUm8DNFEOHSAXGLRWUu4AZlNBDCV7C2YTWSjN8zbaBICaKbUOUJg0AYCFWHtAocK3AS1R6pmuTC0AQCbutVQrJRBDa7MDM6ApBUDcFUChiADFu9TMJVAPFnTriTOboYK0qi+g0UmQJWNae7XGECgghBGh3gQqORXi6gECqBZzOfs0VSAmk39LnogKqBbTxgXVFQRtFqIDCMyrGLEOkCFAmdjFgPWtjap6AANtlA9xLgAJWLCizqsstDgrZwGooFeOBdbWZMmUk8IaHhZqXlBdkE+Vct/w74jJXFZnAcvV+lC7qCBUEDXNRf/JkisfWfxsVWshWdU4NFLOHhDQXNSLqHHzk8u84va6HpBI+rwaNYw6k5Vkrw2rEbTQjIC+DZR6DxD7tBqXqONLpOhme5s/cX2hKT5oZQxIfrYblRHom8XzkC1oEEOqfqTYytQAccmC7tVqSxmq0ZipurXPRgBYmRpxT0MssPUJiRuj1guBki66ki2BoHiCV0WE9X+RnjgvgNcJo9CPnjDP01uxNndcULvzW1KYN7nrvpvcxJ0PgKkovq/gThdt48n+PEj9mB3/fQbfTzbT/PcVcGX5cct5hFun3alCdOcFXZHW3sHunreH/xe+l91+P90Xl//7C6K9mi6X/PgX);lineShape=1;" vertex="1" parent="1">
                    <mxGeometry x="239.23023757145188" y="186.72702194829048" width="3.413600531902971" height="22.89155612692051" as="geometry"/>
                </mxCell>
                <mxCell id="87" value="" style="shape=stencil(lVfLctswDPwaXTEkwec5Tf8jM3FqTV074zht8/eBqqFqkNLGvtnSQgAIYLEc+OFt//S6G5x5u5xPP3d/xufLfuBvg3Pjcb87jxf5NfDjwA8vp/Pux/n0fnye/78+Tcjp16/T7+kLf2c7ppwnI2c+5geGjPn34PsMP4zHK3jq4czbcOspsMJbygAvr61XeKYSAT63+EgBhM8Sj1X4TCYAfKGg8001oVW8DxRzE48r2/hgKCWFD2QTwAfKoYnfu218NOScPn9XM1o3kAT0gVp5AjwkSz60BiiktJzItQE402zbmolBAEXLkWLnIQIPxVPukvagjUok33hIFC0wSFR0nZ0nA06pFLK6cIwnQQyyNvCRGFTammXSl94rVECzioumNxITo5gyJT0NOZBBHlKd3mpQJGtQ6hLq68WgkEGF8ORya5CQB0cxaoOIc7CthywzikKSGdW9kVLt+PX+log1qUahNX+PgfBORkl3IfFC/DcmLcRXkEF3rLYQo5HrCmcXqrqxNawMxF3NJ9vI39XeLNsQD3UzQN7B9bM2o5hdexqIMhCI+zqiyQujb1JZMxAWEk1PlvKJhArhq0ZYKmewKlkh8C8s+h0x8QAodr+FpqMG5zTtuY5pEINPm9R3BqDD47KkrgyQGpvUQOMhQDUgzVYaLsNJ93omc63+jYIpO7hTJkWmmyMbeEoi+Zzu1ySfQJpSVrkmDiklg6RFA7d70ZHDqthoDzFBWdxFFBluCG7JNVoqgDVcbf0FL/sBTI98Tc9CSHBNi6rXRQ4MZbShoIfTY8YwZBu8JQP6umNVEVcJ43XPyXZDRN+tT1luFuabNAeLSkeiWwi3abh6wBvltbpcXDl/A95oVVNndKPZ7rpBfgmXH/8vqy/j4TDfda/ft5dbeTRfjPnxEw==);lineShape=1;" vertex="1" parent="1">
                    <mxGeometry x="496.14130340415613" y="98.08375158880654" width="53.39073817312386" height="6.52754875724306" as="geometry"/>
                </mxCell>
                <mxCell id="88" value="" style="shape=stencil(lVjbdhoxDPyafdXxXfZzmv5HzgkpnFLIIfT2950tXYqtZIC3ZdHYljQayTvFh7f10+tqCu7teNh/Xf3cPB/XU/w0hbDZrVeHzRFPU3yc4sPL/rD6cth/3z2ffr8+zZbz07f9j3mFXydckNpmUHC/Ty9illb/vvl8st9udhf2KqX09kWS/9jeB/EGkB0BVLNDFk9OBBdc7QFJlBwpZEltBERypOglDTtECeRIcNHHHoBDNgJo0gaAo2lIUWIZAS4QQBXXA0IVJTtkMCP3ABVVAkBe2whgYS1OSh/WUKSRKBUQoY2ASnwoTYr2AFCD7KBR2uC05wAEsQf4SMNag2jqAKi3QuwRktBvQJnUwNWeSU48yVrLUnWwdyRpTU0OxCViXyX26+sS4vftm4R+fY8dSTUDMPK0SiYR9e7s4YJI/toW//TknLO4RPkjgOuTVpIE5nUdj6RBEinnVkT7claEieUtL+tdABhRWxo1TBNV+haN06h/FqUgYQirUlkFt7UXjJQlsigZAHRYWZTMkVAOyuhtnPZQNVafJqxRCouqyZuTwIJqiIFGwtY3zMuSWQ4MtWfB4wU9FA80OBNFeqc+0U8riykkoPc5NUksa0Zk0IvoDlbF3NJPb5RJhc7fpcNoLY4T404ATjwUtEolUULriX7cwZNyQ29rPQBvmOxhvdzXZ0UqiQ+QoNyzD2FwbAe3nPgMgNPEBztjXPDxxjFm5iMhkx2UAGA1Z0cxAFjDssMeCMy6gx0noSOV8NsOrDMf2YRrRuLGRzE7dENrC/HBjvVQcyY09uIAAJuV7NVkbjDsLmMuPyjCeM/tCvaJuTDe3mDfWIwkuNGe8cJL7ofVqlTs3TLLnu0jnejdmDJtdJo8z7Jn+0gzZjpJKVfOP9q7hba3nQeDISOE8TdxCTbxTIFeeEy+UKdMsQ0fUKZsKLz3a8F1ezz8/zTxstluT182Lv8fP2Xg1ekzSHz8Aw==);lineShape=1;" vertex="1" parent="1">
                    <mxGeometry x="490.97115990814063" y="107.79136338628814" width="67.31067787501243" height="7.143010622868359" as="geometry"/>
                </mxCell>
                <mxCell id="89" value="" style="shape=stencil(lVjLbttADPwaX4ldcp/nNP2PAHEao2kcOEkff1+qxioiJU3Qmy1zzCU5JGd1kJvXx7uX44HD69vl/P3463T/9niQLwfm0/Pj8XJ6008HuT3IzcP5cvx2Ob8/31+/v9xNltOnH+ef0z/8vuIaZZ5AHP5cH0SS/u/B16v50+l5YR6Fajf2hars23OgVu3/M9UMAI2SWECDHiRTtidioVL2ASlStyFzpRIAoBJbDxKogBiyHsDGIPOTbUAbOZkBGR6pJEo2rVIpp31A1RM7QKfEAFBHEgcgBerAQxMSm9bEJADQ5yTOACVXBIBC3caQCgUQQwyBQjCIzJAb6kJs1LlSAoXokaoFFPUJSt3KqNMMwA3Rgu/QkiH7avbsK40E5FW54chUI0UQQ5nJOQMSZeAhd8rNAjpFULmciKMBtEQRkCl1Eht008kGYkjaQfZIXSiBySeJii1c76P22wD2XFrwcRsRKEbvApVah2W03OgNnkmntRuWHfObtdQuTRkPfB3Hwee1A27okYJNU2eKKOhK4jzoJAFk4k7BBt36KP52HSKxLbWSqaFSy+DaEgCC1vFe2R9JQNDTeG8+6IQ8NL/ldFQ1xO++ogZeWhPAeciUUAzzIl+QD1VaVotX6Z0rTKvYlaINlJEHGYNuAeiIGqpnVlOgoX7QoFeAiPqhjv2xyBIqnHZcd1OjwHmvAD/60ijlHsCJPm3RigCF2op8AcWgqs91XMcNFPyYUcAnszWthgAEZGqWS7qCUAyqj5LbirogAFtT9opJVzcjD91rsmlRA7aqEO1OCiiXQNAqRINTJwmqE/05uvtAgP1QNCdOktUxqfbkDNsYcoZSoK0qraIPqZO2qrTmDXWc1jWVlQekvrUO7kgRqsRJsdmgp9qDLJX52jYD5jW5XWklnxPTaZBlj3zuYqb6HiosGReMxZVDQAw67rudS1KIUYsyBTv59Akj+ZO91tBpy6BFY/WjkmdtsHc/dipR/6KjBqJiQ4hxFGbbAQV7IJyisGLqqOKOuVNKuhhAPlfXqzn6HXM3K3jsxh1zn0rYlXHcNj/MI+KCHythKKxtrhE3Z44mbxri7MMcLZs8ZM3CHGSmeFEe4N6oa3N44/y/V0KfmuuHj7dPD6enp+vLq+Xv/m2VPrq+6ZLbvw==);lineShape=1;" vertex="1" parent="1">
                    <mxGeometry x="531.0902172007841" y="80.68130538218611" width="41.13755131897712" height="51.85363192627732" as="geometry"/>
                </mxCell>
                <mxCell id="90" value="" style="shape=table;startSize=0;container=1;collapsible=0;childLayout=tableLayout;" vertex="1" parent="1">
                    <mxGeometry x="620" y="6.159999999999997" width="60" height="200" as="geometry"/>
                </mxCell>
                <mxCell id="91" value="" style="shape=tableRow;horizontal=0;startSize=0;swimlaneHead=0;swimlaneBody=0;top=0;left=0;bottom=0;right=0;collapsible=0;dropTarget=0;fillColor=none;points=[[0,0.5],[1,0.5]];portConstraint=eastwest;" vertex="1" parent="90">
                    <mxGeometry width="60" height="40" as="geometry"/>
                </mxCell>
                <mxCell id="92" value="" style="shape=partialRectangle;html=1;whiteSpace=wrap;connectable=0;overflow=hidden;fillColor=none;top=0;left=0;bottom=0;right=0;pointerEvents=1;" vertex="1" parent="91">
                    <mxGeometry width="60" height="40" as="geometry">
                        <mxRectangle width="60" height="40" as="alternateBounds"/>
                    </mxGeometry>
                </mxCell>
                <mxCell id="93" value="" style="shape=tableRow;horizontal=0;startSize=0;swimlaneHead=0;swimlaneBody=0;top=0;left=0;bottom=0;right=0;collapsible=0;dropTarget=0;fillColor=none;points=[[0,0.5],[1,0.5]];portConstraint=eastwest;" vertex="1" parent="90">
                    <mxGeometry y="40" width="60" height="40" as="geometry"/>
                </mxCell>
                <mxCell id="94" value="" style="shape=partialRectangle;html=1;whiteSpace=wrap;connectable=0;overflow=hidden;fillColor=none;top=0;left=0;bottom=0;right=0;pointerEvents=1;" vertex="1" parent="93">
                    <mxGeometry width="60" height="40" as="geometry">
                        <mxRectangle width="60" height="40" as="alternateBounds"/>
                    </mxGeometry>
                </mxCell>
                <mxCell id="95" value="" style="shape=tableRow;horizontal=0;startSize=0;swimlaneHead=0;swimlaneBody=0;top=0;left=0;bottom=0;right=0;collapsible=0;dropTarget=0;fillColor=none;points=[[0,0.5],[1,0.5]];portConstraint=eastwest;" vertex="1" parent="90">
                    <mxGeometry y="80" width="60" height="40" as="geometry"/>
                </mxCell>
                <mxCell id="96" value="" style="shape=partialRectangle;html=1;whiteSpace=wrap;connectable=0;overflow=hidden;fillColor=none;top=0;left=0;bottom=0;right=0;pointerEvents=1;" vertex="1" parent="95">
                    <mxGeometry width="60" height="40" as="geometry">
                        <mxRectangle width="60" height="40" as="alternateBounds"/>
                    </mxGeometry>
                </mxCell>
                <mxCell id="97" value="" style="shape=tableRow;horizontal=0;startSize=0;swimlaneHead=0;swimlaneBody=0;top=0;left=0;bottom=0;right=0;collapsible=0;dropTarget=0;fillColor=none;points=[[0,0.5],[1,0.5]];portConstraint=eastwest;" vertex="1" parent="90">
                    <mxGeometry y="120" width="60" height="40" as="geometry"/>
                </mxCell>
                <mxCell id="98" value="" style="shape=partialRectangle;html=1;whiteSpace=wrap;connectable=0;overflow=hidden;fillColor=none;top=0;left=0;bottom=0;right=0;pointerEvents=1;" vertex="1" parent="97">
                    <mxGeometry width="60" height="40" as="geometry">
                        <mxRectangle width="60" height="40" as="alternateBounds"/>
                    </mxGeometry>
                </mxCell>
                <mxCell id="99" value="" style="shape=tableRow;horizontal=0;startSize=0;swimlaneHead=0;swimlaneBody=0;top=0;left=0;bottom=0;right=0;collapsible=0;dropTarget=0;fillColor=none;points=[[0,0.5],[1,0.5]];portConstraint=eastwest;" vertex="1" parent="90">
                    <mxGeometry y="160" width="60" height="40" as="geometry"/>
                </mxCell>
                <mxCell id="100" value="" style="shape=partialRectangle;html=1;whiteSpace=wrap;connectable=0;overflow=hidden;fillColor=none;top=0;left=0;bottom=0;right=0;pointerEvents=1;" vertex="1" parent="99">
                    <mxGeometry width="60" height="40" as="geometry">
                        <mxRectangle width="60" height="40" as="alternateBounds"/>
                    </mxGeometry>
                </mxCell>
                <mxCell id="101" value="" style="shape=stencil(lVfbctpADP0av2pWq70+p+l/ZCakMKWQIfT29xVlbJBwjuHN2DqsLkdH2kGePtYv76shho/jYf999XvzelwP8mWIcbNbrw6boz4N8jzI09v+sPp22P/cvZ5/v7+cLE9PP/a/Tv/w54xrkUo8oWL4e35TqIX/L76e7beb3bW9UGJjz0JNACBTLAYQhWIGAHUgG4AwhQgAjVoygBQp8ueAHihVA8hxfDMP4DHEKUl6QgOASL0bQGUMEOrWpRaIEaD5E1qnUACgU2kGoE4GUOmeKdk69EQN1aFQdYBKMX0OqImSc6lDl3Knnjygg0qnROUG0EBaZcr6BNBEg6C5Ueg+aAaA7vtNs1oA9zIV2z4XMs7aFyqWqtoeHeSUlfrWIa0jYl5UgM2pakIHDS3Zh6yikwBVc6DsuK0xA0DJVLs/IYKgq1aBfQzIJZUMH0OmjLqn+rppHRhQlUMYuX9VaaR7eoQ4rgrsBg3Cc7XAIKoqqwM0CChppkEratDp8zROLnmYZ1Ma59PVEQJUJjJVK62aODTimL0WqxRmcELxDaHKig6YtQdJuiHGwmwI1C0vFoZPJLb+LEw3GTlw5/jMxFaSFubzJKD3LgCeQwsbBqu+2N5c2GGUEWIBeElSTRXbN5oCoC6cPSNk1Kf5ggUSm6E4Llnz9jeTmaE/2mNi7cMY0HwX6xLZnT2c4xMf77S/GZq6waEG071DHoi3ihdrnE/VxfxIvXR8ZRsv5sPDS/mivT5cbgBvm+32fIG4/u5vDPrqfNuQ538=);lineShape=1;" vertex="1" parent="1">
                    <mxGeometry x="646.0255507659922" y="23.318741751833556" width="3.457560193184387" height="17.995658251723132" as="geometry"/>
                </mxCell>
                <mxCell id="102" value="" style="shape=stencil(lVfbbuJADP2avFoz9lyfu93/qFS6oGWhonQvf78eoQA27UmReAiJT2wf28eTSR7e1k+vq4nD2/Gw/7n6s3k+rif5NjFvduvVYXPUq0keJ3l42R9WPw77993z6f/r07AcV7/2v8cb/p5wMQQKYcA4/DvdKjT+6e/7CbDd7K4APVEQYx8rlQAATKkZAGdiBAjUbUQiFEBIrRNnA0j6igwAGjFbQKMqAJCpJwPIhRLykKlGy6pQQjkU76Em6gUANGLLUhOKgFZlydWhK60dshRtSD2TIA+BpFhAJW6fA0qn5jw0aoAlZd0l3TtVwFJiEluHq4b/EMGNYvUuMogpaqmrT0JATNo5LodCBfRSpOBISpTr5/aB2FVBSUiAo5syB4qgapGJbcLaiwIYYqHaLUC7HWQgdWb8CsCAohyp33hAgHIznwshVe1kuSdpVQDJ99A6VMwmvVA3DSDZkEZjIA86765TtfNAp1a5GbeF1o7Etg4Lw5NUYyxLS/MpPA/8FyUgdi/2CyLTKdrWGCoGWuNcpSuZZKCrNwt36DAo2/32zQ0P1nn20zk2D6hApmjbTldbBPyoZrvdqdsU8u/0UZczR6hHLiBd/wls85hm/+cDhp5RAEN6wum2S1U0C1K8OC/7c1sXeCJRiXQeMmUw++OxXeZpHqSP7fssVucMqAF7SbManhOAByTds9HGE+D7c5jTu9gzGOLc55V3sUcqUZpvugBnRuU9R2ef0VFH1b05fhjw0yO17vhnUN8hzDZfgedN1UDXcIkampl7j/1fAOjF5SvjZbPdnj5Srp/7rxK9dfqikcf/);lineShape=1;" vertex="1" parent="1">
                    <mxGeometry x="646.2653255643127" y="59.098428850384494" width="3.0951359896516806" height="19.998781322670613" as="geometry"/>
                </mxCell>
                <mxCell id="103" value="" style="shape=stencil(lVfZctswDPwavWJ4gcdzmv5HZuLUmrp2xnF6/H2haigHqLyO3mQZKxLYxYIc4sPb/ul1NwT3djmfvu9+jc+X/RC/DCGMx/3uPF7kaYiPQ3x4OZ13386n9+Pz/Pv1aYqcnn6cfk5f+D3jvHPk3AQL7s/8KpNr/158nQGH8fgB0DIlVvGeKUYACBSSAoRCId8GVCbnFSA2CCiZml6BHXkECP3vBVCppNuA3ChHXSSm5CCgNQWQNXMBW/KWhio5gC0JIOukpdAZ51B00i31Ta4DUud1ARTyIGlmakEDcFnTUsQF0CAgRqpVi++q31VECMTZLpFA1j5YqiUJpD4mb+KlQ0AOjmqyNISA4oPuhub7F9ZrRFHH10YM4htVTVotxECpvpHTCdTcS7C+IWFIV0g6PIIVkkg7bAGwcOa2bClLCeOWpHO1vTBVlWF7JiMLWRMBRBemF0QXKIdMbABYeNysxdxRdhJA2dI7sVAxs+Fee+ae4ycdQIZN8TYJBCgUTdLYxISlYmlALvnf+Lxjw9vjsy7pNBeALLy1Fxk8DOwldUaXyRa7i9+wC6/3w1LPCvaTu/t0QCrUQCOIJKIGiKwS8he2FN85wiQZ/1pDPhGDHFKyQwQfeWSuVXOCoYYMrxJrEgIVwIH4nRnlHmpITjdOk7aYza3J76uJD6jHHJVi4lHXFyE023hAWI1W1I7Yg/jFm6/1QVY6OW029Q/g+2IhWddHhi46Mzd7VkvdxdZ7Zuuh/BMAebjeAV7Gw2G+Qnz8394Z5NV834iPfwE=);lineShape=1;" vertex="1" parent="1">
                    <mxGeometry x="645.5449946442882" y="99.05764289329284" width="4.388329968041944" height="21.326020953184372" as="geometry"/>
                </mxCell>
                <mxCell id="104" value="" style="shape=stencil(lVjZUhsxEPwav07pGh3PhPwHVZjgCsGUgRx/n964tFmN7KZ4M8vMStPTPWrtLt68Pt697HfBvb6djt/3vw73b4+7+GUXwuH5cX86vOHXLt7u4s3D8bT/djq+P9+f/365WyKXXz+OP5c3/D7nqbS2JAX35/zAe3Hl35Ov5/inw/Mm3qsEPyQ0Kfl6fCiSdYgvkvR6fPLSxvgkpV2P1ywlDvFB1F2Pz01CGuIdfX9BeWriHXl/raJhBFRCvR7ftMPX41WU4Nma5DHeB/GsYW7d8JrRxEWyRBU3thg9K6TmliSNe4pJPCva2RWSk+gJqlFqHRNAI9a2LGFsmybJgfCiSh1RyhACIWp2lqi5UFg12hWKpzWkqQZU5QlKsVquVi5mgBhHWGuQRBKgtlzGBMBA6FrAnDEBTypBCTv2o55LFU9WqCvV1oQmkTSu5k6EDUpMopC0N0VHOvOQkMehijWV0bv2vq4Jrff+Wg06cql5KlGg5MaiWxQl5Fv6Os5JqLwk2mkd+4DR5ojiSuqob1aITNOQiyk6SCNcmmc9Bk9lh0O1KKEzgSWAzOPkqyrpU2MGiqOw4ngyW3L0AC1R0iQgesLl6YQu0kgN2ICLUwJja5QQ7JYqE5BKbbZoJXOpFnuKAtbK6A2JjtTAmsqHQJqoEVkNRfxEPsZWSLSNsEKijlADJVpNJ04NEMF4tw8k+tmEWUAt8wOl9Fm9JgBoMioTNG1QgiMiEo3TXNo4osuWtYlXu0QknVss4TT6IiETTLSORSz0Iq1GgpnGy8lOVsCWmjl3MStZQu4obuxMIZ2LaodrDpLJCil0vayWrNLOqbdWWiFqghLep8ZWZjqYsnYDtvGhbGzgCAqT020EpaLWuIJdjo0N10tcEzydM3A7deSSj9IIrKjBeDifuue6DGuzJwroyNiatDu2NQEyZ1xy9hKHKwrjEt6nzaJEHZYdM7gmFmYdrEdc4plX7yfmJp7tJ1otYP+NxIfpSub7k4vxk/wBaCWAOuvFfKUH7nynLNSlO+vqQSFme9wFjjJv6C0fIAJ2Aw1WZcstmvY3mv17fq598rPKx/H48f8bzsPh6en8CWj7f/vNB4/O34vi7V8=);lineShape=1;" vertex="1" parent="1">
                    <mxGeometry x="646.4257683398596" y="141.57043813235464" width="17.079242856698833" height="20.736713140700797" as="geometry"/>
                </mxCell>
                <mxCell id="105" value="" style="shape=stencil(lVjbchshDP0av2pAAgTPafofmYnTeJrGGSe9/X219eAasXvSvK13dYwuRwfBTm5eH+9e9jsOr2+n49f9z8P92+NOPu2YD8+P+9PhzZ52cruTm4fjaf/ldPz+fH/+/XK3WC5P344/ln/4dcZFpVIXFIff5zeBcv774vPZ/unwfGXPiao6ewH2koijsw9h2z4VamGwj1R42z4rqQz2hRT4UzKl0f/I1NI2QJnYARqFBgCFSh4AXHtM64DJJSlUCwAEim0ApEwZxFCY4rhCFkoRZDVRHqtWAiWwQlIKZQQosQBeNO+SJgrAJWFKY9DaYFo5UxljqAqpFAvlcYXKMGhbofHokrFXQQyV0thsKqQV1MGaK42A2Pm+XmkDuBUCKaJGI1UPSCCttRJPKwgANKYgHlARIE8xWA+Cnm5KzVEjdbKsA5qvtBpbASCGi2pduGFRg1LbEnEMokoPaysIHtNUS0/cOiB5blhpIMDS7hri4uR6qa2p2QMEkGkJsXiXMmg5SyKzD1qRuKpvuWppAEFbR6oLOkJ+L4Cx0lpJgDDNLmmGlV6CHl0yfjeUJelb7JUKRJClpXBuhdArs0mN4AH5HfKJd6mgfpjobdIHAVMDWWUEyffco7ZDIG7MMrAIPlKmOqlA7rXclDK3glJCUjaJZcXDwyzH1qPv6Xf7CMDq1MpHAEUoBg/IgK62y8Wxg1rsyrM+bQQvTE2gMEnw80yzzR4ND8FvKQtZUFr7aHGZEgMedOcNpcIWTV2ErsgdgMrESVqXXRQ4ZCcBNwmURA0fBZzwZeMqmvm4p/AC4D76btWZp0EXbQ82hjq1tzkzgazm3OevCyDAUdq4WkaXLA2Qq8kP65boCgo3n5higgPWfCSLAgs3n/kMoCBLMfcZ8gqQEcAciB6AusEOYeKOfQxPWTH6/jHCI6G0z8F1NJ4RfUMrzOlkXmA3z96kPpz9Z7gCNXjOJ8ONaqVgkHMzI/Ax46PXDO/b28O/O42Hw9PT+Urk+ru/A7FX5/sTuf0D);lineShape=1;" vertex="1" parent="1">
                    <mxGeometry x="647.6780477863704" y="180.030117688392" width="14.925838899129202" height="18.340464265408702" as="geometry"/>
                </mxCell>
                <mxCell id="106" value="" style="shape=stencil(lVfLctswDPwaXTEkwec5Tf4jM3FqTVw74zhp8/eBqpEiQPXKvckUVyQW2AXc8d3b/vF11wX3djmfXna/+6fLvuMfXQj9cb879xd56vi+47vn03n383x6Pz6Nv18fh53D06/Tx/CFPyOuUa4DKLjPccFT8H8XHsbth/642O4rxaT3O6rtOoAdFa8AIRDX64DoyWcFkE8kvg5IjjhoQKYITkiVSlGA6MiBoLOQFDWAIaAISzroGKjG64DmptcLQE4AwKsY4sTbvwGZuGlApeQAQGJgBUiJAophVUqZKYMreSe0O4UoARaTHMG6NqqnhmgqVHUQtVFDUSdKmldZgQC5sU71cElQrnIBk2oBVATI1DSvEhWDRNQ46WUGBPLohEDFsBSpAFqF9aKLqSSYhzUgZ8oFX0mzlCSVQNTroMUXUH0PtBpBJGIEkDRp6xtEHXBpaGMS20ClsS6+mKkgUa/KO4XJF24UUHZT7m/VqLhhwRo1NlAaNMu10dQyrdxoZW3D+3hicQZseJ+zvC54uNHAtxDSI4JRaYOSyGXqCAsfQMlO2XYhqcgEeJJqaxogIqngBGm0xRi4RAVOCJmcpkmiQtXkeSVrhpKI1mhEc+gAtlmQ+QOZq7cUsWgQpHmejub94gGAUjf12HlcqtCVVvKU8Qr1K0fezHsFDkvOzhlexjfg9N62EkyPzFHGIskDSxWTN9Mn1HG2ZEr0SJK20W5o/v9G583t8vA9pT/3h8M45C/f26lelsZ/BHz/BQ==);lineShape=1;" vertex="1" parent="1">
                    <mxGeometry x="109.88168392314515" y="32.37964082469614" width="17.07111763080421" height="5.461208349772227" as="geometry"/>
                </mxCell>
                <mxCell id="107" value="" style="shape=stencil(lVbLctswDPwaXTEkQRLgOU3/IzNxak9dO+M4ffx9oWrsGmS0bm+yjBUJ7C6AiR/etk+vmymFt/Pp+HXzY/d83k78aUppd9huTruzPU38OPHDy/G0+XI6vh+el9+vT3Pk/PTt+H3+ws8FpxTaDErh1/IiZZLw583nJX6/O9zEx0JJPIBJ8jrAvle6EyI1XQdwIWEHiI0UAHKlXD1AKfI6oAiJekClCgBVqBQPiMTgSqrUsgMECqCqLRF3KZA0EF8oexYUf1/6+0SBJLRGJTgAB6oAEMM1wwsi50uZ145gz0JRnLTRFh1AIqUKqxR9VTWQCqShy0FNGAnyXLoTrK6ACDX7dCdc/fExIPV+E6EAtGopBl/WWinEdYAoqc+hJKrgSgYQLyZWygUAGknqm4yiKsWe6cgUwQlzETvxwaZkLIlvSoEyKGozofV+RiVqw33MsMgLQqlLOBMjQ7ehb1dKKINGzbOcTShA2gboOCgZn6DEXqnWNhm5rfY5mLIC8rOJoDOPORy14SGH2Z7IbYNS7wCqldUDLCu5M3t80jed8x/Hm1W6AMA4QOc7AfeMI9r0WwFgXAKscyqqa8+0GaqhgUvR260FauBCV7NcadNLF/w444t7r/EM/Rn7UWVNOIOeGvrxLAF6Z5idNUHrDPGzN4FzhvuYqBjwNeTLjRJoFkM9GffrgS9TSAHxgx6sn6Jt5H+32vvx9vB3hX7Z7ffLBn77f79y26tlXefH3w==);lineShape=1;" vertex="1" parent="1">
                    <mxGeometry x="627.7732420062098" y="26.693529812492443" width="14.955846342283824" height="3.6265709411458147" as="geometry"/>
                </mxCell>
                <mxCell id="108" value="fused array which has&lt;br&gt;&amp;nbsp;sum of all the columns" style="text;html=1;align=center;verticalAlign=middle;resizable=0;points=[];autosize=1;strokeColor=none;fillColor=none;" vertex="1" parent="1">
                    <mxGeometry x="475" y="130" width="150" height="40" as="geometry"/>
                </mxCell>
                <mxCell id="109" value="" style="shape=stencil(lVvZchQ3FP0av6okXa3PhPwHVZjgCsGUgSx/n6M4akZH06eLt/H4nm7p7ts82JuvH999eXyI/uu3l+ffH/96ev/t44P98hDj0+ePjy9P3/Dpwd4+2JsPzy+Pv708f//8/vXvL+8G5fj0x/Of4wl/v+Ky62GAov/n9QvvfP7vi19fyT89fb4hD8Flpk9N0DdX2kIfXEjn9DhPZPounm94XFzoo2sm6ItLaaE3V/05fQrO94U+uVQFfXZ+PX92QdE3VyvR/y+Qu/Q5uLbSF3n+nFxf71tdK4K+8PP7ZMB9ejzOr/LyzqIANOdXBYJKmZDYAJQVEJ0JFboDMJcujmQrILmiAAcPDwCkpqRQXaJLVxcVoLi+qjUMKSu9KKx3obsmDDlDL/NqOGF+c6ZJcZU0TE2ZQjYX6Q3mmrpDZN8yjEepRmDjgTVIXQourtYMc0hKvb0rBIBDE/aTuusE6K4KbQUgr5I2Lz0YAH69NHxgE3cYLmY9ksFHCp+6+ySD4IQ93HlDclVxqc3nHYA848QpYNUlOPIidAmAvmqr1WlSZ5LOqwEZGK3cjLnQGaC4NFzrqt7JuyruUAJbHKJRFapRsjN6Q3RFACqCN70BrlIBiovGABWfW5jmcgCS9HyturADhHr36EJjgKk3QFtX5RtBW8ihQfsTA5SbqfDVmQFBcKnajDe3AHHp0l3xDLhQDb5DkQGlRNdJ0nVq1xmgEKDNAHAfYNP1HoDuojCgkmbcP3Il76IwUVzaEyBMKz8D5JWtsHIvYhwAlF4hTEq2wm2tqoFAXBWXKscH+JGq7tCcrQaE7EO6me4CXbpJmwaA33BEvTM3Q2EXrk3aQ+DkBNplgks1ToM8ADYT0zNAX+8A7VJcGiZKgCyTxJq2I8HihLbWrRSDKKOIorXO5x0AyEFxCRFtlTQYrSyuea6WBqMVILB6g2+qPmyRE13wTZloS/MAByBLSbc8I9oBqNK3NuSQa/oz/Lk6Up3x5gB0mWABQF4DfFOSRshKK1tblG4GgE4A6K9wZK3PsvwApFkJngEoOQGju7pDn776AFSZYA3AKgfcSlUoA7BmAuMbfSQSXEfxqgS35a09yDR0SJrK6TgrijPlIzfTTQb2ISa6Q5IdAWhOWeXQ88z3z7wGZfe9yDoOBklFU68yM4YXaquJ9ibTUARF0iUAVA2E8EE5X4dqqFp06wkAkFR5vFW7AGRVlhWudgFQEQjVgt8BqteVOOxeAFDb1rQBVLfOuBa9AITCMe4C0DhMd+1a6+xe3tCr1CTfo1f9xtnNuz2PcDGB83TQq4rMcwIKehVwPUf03qQX9uzmQa+01G/yajLljlwf9sMDnvCT/WOV2W3mdKHr5LZu568y3T5M8Pb84vkh3GGoaviGyDVJ1529sKW2w9epNxwd81tfp4wy3HEsWSgR/rv5RunfN6Z2qRSZ6YM/9PxEi+pmlUpq8Z7bklbGMbbL+OS5ogK9F1qN25FWN6nVftrsDb0qj8Lm15uc8th82m0AV5HmJ+lD2gJ+ldEVN2CruQCUmQ/cAoROW+RS5wqwZwgakNJmZheAzh2VAVBTg62nD0BU7Yut6YnUTpb+mesKAFR9h4qUA1qWAb+GTXBJF7VpzghuMmZl/KOHSZKOMuagXowkuKCTkMrNZ9QVKj1FgUnq3S48auO8pWmPMQBUTFUZ+AEgH4bSJKuOSuNJ7Ki89R3CytZR2ytJV66+UNSqwAaArbqE4serjkqZcj0AXqtG4UvXrrmUuVs92KCOtI3dxiHVG4yDCd4pJR043OKdSemS5woS74w/5QRqlNVXaWzTeKdK48sxDbpphanBXklcoxadGBbjGIp3qgErSk5yZEU3SErY+n95hpgz7026VEwaUO7sNYq2B1TB/Iagh2J1RoOb1rBy9wOwaiveKYfEhQWHR6gWTM7bhkWZRdl9QOJRCR5hiktpa6Cbzm9ttqUOQNRj6MgZd9YN9DHnoDHDkZPeB/jZHpyAi2FM6uwqU5M57j5gTUUvTewTqCynypAr9TvGYE/cAQZk26xRjt0SN3mSyeJtDFi3eamqZEZvmgZ7UWYziGgURQdANW7rnTuoirVvyjcuLdiKpJPiw2CrKnH91sYYE1ZVpm/uOx2LXWed2137VKAemYLf3nAhOWOAmn8i7ubKl1aZLgIOuQ0A1AYOnDXvAyS9FLRNJ0fRIkQ9/Bax1WZGdN9t1G0OHeWC2VhIoDsEGRWtc4liugVolXvD1iSXAKAm18VuyQDQboneXrFtonSxHzMAtNaoN3AGgI6kB6a2RfaxRaQBtCRnQTZZbBtcm5e7Vrbt+PzoTJ2pBgW52KRNJ8+Ci1XuHgJAJUos2h62BnFMMiqmyPPPaDPWnxlQJIBOvtOWzkRdvQJATdxwMfrYBkShybkbPCkdKVS5lzF89bahqdLKEQ1Wr3GxAzoAK1uDXp3a5z0Xe6w/AtQBCDIPHfGGjuRlbTnkQH0KnfMlnn40faDArlhvW9q2TFy0PSeuvrNsO+J69Pws26Bx2x9K0nLC1rAzyZ+wr9TqRQM2/TD3CE663NxGl2lb4PXEIPU5cC0Z5Nad52Uv/TsAz51MfzHW8kyuRtqeVze95PtWuXgZNQIXzV7mgYG9p5dLz1tbwcuK3O6Qq/DC8zVN/pO/Hrkkx4cfP1T58PTp0+vvXG7/zz9swVevP4qxt/8C);lineShape=1;" vertex="1" parent="1">
                    <mxGeometry x="695.4721959884209" y="48.38297213036287" width="28.898716748102135" height="155.40418929082446" as="geometry"/>
                </mxCell>
                <mxCell id="110" value="kadane bolega max sum=1+1+2+2" style="text;html=1;align=center;verticalAlign=middle;resizable=0;points=[];autosize=1;strokeColor=none;fillColor=none;" vertex="1" parent="1">
                    <mxGeometry x="750" y="101.21" width="210" height="30" as="geometry"/>
                </mxCell>
                <mxCell id="116" value="" style="shape=stencil(lVfLbhsxDPyavRISqec5Tf8jQJzaqGsHjtPH35fbrbZLJp6gt7XMEUVyOKImuXvZPzzvJg4v18v56+7H4fG6n+TTxHw47XeXw1W/Jrmf5O7pfNl9uZxfT4/L7+eH2XL++nb+Pu/wc8EJ1TqDOPxaFgKF8Gfh82J+PJw25pGpRWMv1Bqwb9TF2GeSctt+/tvu34iBvURqydhHXWEAaJTZAspYeReQkvfAkRIIOQeq2QIKpQoAhYL1IIFyvA0oYeR8BSRiULXS/JE0DQyOVDMVSwvpsG5Ns169hyIAUIldDJUKSGvv1G2W9JAVeFBAstRrCQMapW4AnWGWeh1ZXwGVcgIAPbFldwy433qiaPOqYUkHAKZq0zQ7RUFEyrYQrcOG6MpvmyYtvqAYwuiXtXKROiCTAkoxgMKjNLdiENvUGcuSZklsDKlSQEGrTtojJaaCS83OQ6SIYiheWdVDw3R11NAYBHcQuywlEkSNTs3KRhEKALBh81pqpoxK3alYF7OSIEDzcqx07Sjq6smkmQ4IUHya+gcNkYZwbQAdVU4GEza6wZjf7hbVlb+luQUI7hrFN4S2XLYeVF0jiiEMpVu5kSmjGN4DFHCk+YZw0pcpgaBn5jg5Vn6DHtUQxXlQ9QSVLnVQbU1rgz2au5cNPWQGMWhHOg+1wAZK3d/UFatxEj88zIUDTT3fy5atOn9EPJNF6yFrokHQnEbWV0CEl5xOldmqhkpfBZXWsTU7NdZEAw/i2yGpnqMQvMjo/gkw6c3YqmIv0D7a8+g8hkQsjJJuJkR0IQZfMlYJA6R4o/NaQzTuqb09f+zj9rph73o/CnWQH51JXOvD7aN/ZWh1wcDNFNxE/wEZmiVbgA+G/3yCfWiuH/9ee0+H43F5LG7/969DXVpelnL/Gw==);lineShape=1;" vertex="1" parent="1">
                    <mxGeometry x="965.48890725929" y="115.17685078161378" width="30.00068619218483" height="4.853305454309786" as="geometry"/>
                </mxCell>
                <mxCell id="117" value="" style="shape=stencil(rVfbbhoxEP0aXke+z/g5Tf8jUkhBpSEipJe/76xW3jA2HLZSJR4WOGftuR0fb+LD++7pbbsJ7v18On7f/to/n3eb+GUTwv51tz3tz/q0iY+b+PByPG2/nY4fr8/z97enCTk9/Tj+nN7we+ZFSjyRgvsz/xBo+qafrzP8sH+9gAtJ6eAx3Yb7TNXiHVV/Gx8S+drhPQO8UM4d3rnb+BjJSYfnDPBMyeI9SbyNT57YG7wuCOJNmh+b/kwe5DNH4m4/nly5TSiOxCbIC1UQcSmUbQRaEwYdwZ6CswRdARF0BUuIjiJIknjyNuhQ2yavE/LQpUIFZKlmCtESmCqocy3Epd+SgKCrkA82aF1TAKH2QacIW1UJYmPIiSKIwbtlVhqjZFg5XaLYbmWGldOoxRJECWA+K1Ox818TCRgILUSwhZgSh0q9dPMFgSsgxL43dM0CNKn6NmALwbXi3yI4uyVxOGhH2W6p3IlhIGTtR9Tfw5YSN+VcGbRKp6BKD2mNvpVyZeF0qJFWjq2hBEYxMHEnTJE8imFo7+So4BntBigrAZ2fV2Y0tNKslAGOVDChExpJTdFXSlkNWF0Hsfx8xUo5vsjDf2KoEKVurGsbkuuEQBz7KBisoNrYeZ9J3UB3cGjauBAyzFPh3m1MSoPcQOgPd1F/ArQs6wzZsebUTu/rhqZSSLZfCzwi1DFF237FYwvHvd/IlRIIOgYSe6bcEb/RVGZuM7LStSoB2b7RFk+JBnUYbHfGx+Lg6hVfQY50gAfvgDTAt9UXvOo/0jHyNqNJoDfR88omVM1PBvlxfU9ol6D9DKqqhw/D93d49ekJFHjYj1/mYl28XkUbNVCfT2k2f2W54G6GbghUQfv/4xXyLlwfPm+rL/vDYb7sXv7f3271p/lmHB//Ag==);lineShape=1;" vertex="1" parent="1">
                    <mxGeometry x="961.1326386103137" y="121.9153014263793" width="34.150494292189755" height="4.522752695908391" as="geometry"/>
                </mxCell>
                <mxCell id="118" value="" style="shape=stencil(lVjZbhsxDPwavxKSqPM5Tf8jQJzGaBoHTnr9fWdryDG59gR588FZieSQHO5Gb14f7162mxRe3w7779vfu/u3x41+2aS0e37cHnZv+LTR243ePOwP22+H/c/n++P3l7vFcvn0Y/9recKfIy41qXlBpfD3+EuUpP9/+Hq0f9o9n9lrktiMfZFSiP2QNOzzo4R0HZBVsgNkiYMAmnQHaPPMi4CSJHcDSEEy8blUGcUCVJT4UKNEG1REaQQC6BLtlTTQKLUkLVlAkkCcbm0FgA/E6a4SbKI1S24EMCSqBRSpBDDy/PsEaPMRFwExICjBIHKUEckRYLf1Olfp7E5BerSAIZkkomcJNtUlSiEnIBHV+lA4v1uUarkBPnZGpiZqfShDAonSQld7pZpm8i8XhPqw1kpPQBDVVhAYr6Rt5DzzOgEtUKfzqYRPAJVCACBnt2FtVTQTAKhm+0wD44nTqPlonQZZWJ+JQ5rlEmpKSR5imX9PwFBKvhOXT/ZdeiXck2GDOoZU4kGdTD614veSvZw20eEPGOQAtL3o7WlIZ487c7gQh8EiWwnoIJncf9WQBgqhM3sXIDTBRu4fZFhGDM7q1XQeSQrhqEqr1j7S/ohhn719JUXT5pw8fz6p+y4j+ftnEs+IgFYfoEwSDICnNMYQab+QK26sLSkmLuOEZsseHGJVPKSvOcom83TwvAZYe5e2rjGmwHyf+6iIVVLxBzBSxFWA+pRwV4qgrgLaicPBKxdkjAUU9i6gZZbRtfu4hCm9f1w1rURn2Wft+yzZ09iovGiyL5oeqVKDx45CmJWRlDE4lG3KMI2ZJocPTuRg3kdCUqhX1+kge1hZQlt227qq0lGTk48SdBLzAdJSnVDrtLlDRrm9AlJQSeLqanxAbLI81OznR8aVyAkQm8WekAuN0iKanCTPNA8L1azTS6AZYHinofWY6O/dt3hciQ01rDrDcglLKMvDouEdINL9Duua0xU5UF1RV1uCdjqmFsVuM71sX2wLLqt1jdO7BL9nJ66lUA/J7dmQD2zwgBq28UHPKBs8dTWq+KaDJbnZxEFCN9bIut8SYpq7zzXR7yX2dOpaa3ULZ6FrOezdsIV8YXpn+GJQWjyw78XZ0yUHw9M+P310f6deIo/PajdF8ZPShL1TkIHOQlzXJTjwyaZ+MeXaaFFTzduTbre8KPL3SWw01/X96Sj/5Pu+j+3x4f3l4sPu6en4bvL8f/8yEj8dX2Tq7T8=);lineShape=1;" vertex="1" parent="1">
                    <mxGeometry x="987.2859996586385" y="107.10488554771626" width="26.824539619343945" height="35.67637199610829" as="geometry"/>
                </mxCell>
                <mxCell id="119" value="" style="shape=table;startSize=0;container=1;collapsible=0;childLayout=tableLayout;" vertex="1" parent="1">
                    <mxGeometry x="1070" y="14.21" width="480" height="200" as="geometry"/>
                </mxCell>
                <mxCell id="120" value="" style="shape=tableRow;horizontal=0;startSize=0;swimlaneHead=0;swimlaneBody=0;top=0;left=0;bottom=0;right=0;collapsible=0;dropTarget=0;fillColor=none;points=[[0,0.5],[1,0.5]];portConstraint=eastwest;" vertex="1" parent="119">
                    <mxGeometry width="480" height="40" as="geometry"/>
                </mxCell>
                <mxCell id="121" value="" style="shape=partialRectangle;html=1;whiteSpace=wrap;connectable=0;overflow=hidden;fillColor=none;top=0;left=0;bottom=0;right=0;pointerEvents=1;" vertex="1" parent="120">
                    <mxGeometry width="60" height="40" as="geometry">
                        <mxRectangle width="60" height="40" as="alternateBounds"/>
                    </mxGeometry>
                </mxCell>
                <mxCell id="122" value="" style="shape=partialRectangle;html=1;whiteSpace=wrap;connectable=0;overflow=hidden;fillColor=none;top=0;left=0;bottom=0;right=0;pointerEvents=1;" vertex="1" parent="120">
                    <mxGeometry x="60" width="60" height="40" as="geometry">
                        <mxRectangle width="60" height="40" as="alternateBounds"/>
                    </mxGeometry>
                </mxCell>
                <mxCell id="123" value="" style="shape=partialRectangle;html=1;whiteSpace=wrap;connectable=0;overflow=hidden;fillColor=none;top=0;left=0;bottom=0;right=0;pointerEvents=1;" vertex="1" parent="120">
                    <mxGeometry x="120" width="60" height="40" as="geometry">
                        <mxRectangle width="60" height="40" as="alternateBounds"/>
                    </mxGeometry>
                </mxCell>
                <mxCell id="124" value="" style="shape=partialRectangle;html=1;whiteSpace=wrap;connectable=0;overflow=hidden;fillColor=none;top=0;left=0;bottom=0;right=0;pointerEvents=1;" vertex="1" parent="120">
                    <mxGeometry x="180" width="60" height="40" as="geometry">
                        <mxRectangle width="60" height="40" as="alternateBounds"/>
                    </mxGeometry>
                </mxCell>
                <mxCell id="125" value="" style="shape=partialRectangle;html=1;whiteSpace=wrap;connectable=0;overflow=hidden;fillColor=none;top=0;left=0;bottom=0;right=0;pointerEvents=1;" vertex="1" parent="120">
                    <mxGeometry x="240" width="60" height="40" as="geometry">
                        <mxRectangle width="60" height="40" as="alternateBounds"/>
                    </mxGeometry>
                </mxCell>
                <mxCell id="126" value="" style="shape=partialRectangle;html=1;whiteSpace=wrap;connectable=0;overflow=hidden;fillColor=none;top=0;left=0;bottom=0;right=0;pointerEvents=1;" vertex="1" parent="120">
                    <mxGeometry x="300" width="60" height="40" as="geometry">
                        <mxRectangle width="60" height="40" as="alternateBounds"/>
                    </mxGeometry>
                </mxCell>
                <mxCell id="127" value="" style="shape=partialRectangle;html=1;whiteSpace=wrap;connectable=0;overflow=hidden;fillColor=none;top=0;left=0;bottom=0;right=0;pointerEvents=1;" vertex="1" parent="120">
                    <mxGeometry x="360" width="60" height="40" as="geometry">
                        <mxRectangle width="60" height="40" as="alternateBounds"/>
                    </mxGeometry>
                </mxCell>
                <mxCell id="128" value="" style="shape=partialRectangle;html=1;whiteSpace=wrap;connectable=0;overflow=hidden;fillColor=none;top=0;left=0;bottom=0;right=0;pointerEvents=1;" vertex="1" parent="120">
                    <mxGeometry x="420" width="60" height="40" as="geometry">
                        <mxRectangle width="60" height="40" as="alternateBounds"/>
                    </mxGeometry>
                </mxCell>
                <mxCell id="129" value="" style="shape=tableRow;horizontal=0;startSize=0;swimlaneHead=0;swimlaneBody=0;top=0;left=0;bottom=0;right=0;collapsible=0;dropTarget=0;fillColor=none;points=[[0,0.5],[1,0.5]];portConstraint=eastwest;" vertex="1" parent="119">
                    <mxGeometry y="40" width="480" height="40" as="geometry"/>
                </mxCell>
                <mxCell id="130" value="" style="shape=partialRectangle;html=1;whiteSpace=wrap;connectable=0;overflow=hidden;fillColor=none;top=0;left=0;bottom=0;right=0;pointerEvents=1;" vertex="1" parent="129">
                    <mxGeometry width="60" height="40" as="geometry">
                        <mxRectangle width="60" height="40" as="alternateBounds"/>
                    </mxGeometry>
                </mxCell>
                <mxCell id="131" value="" style="shape=partialRectangle;html=1;whiteSpace=wrap;connectable=0;overflow=hidden;fillColor=none;top=0;left=0;bottom=0;right=0;pointerEvents=1;" vertex="1" parent="129">
                    <mxGeometry x="60" width="60" height="40" as="geometry">
                        <mxRectangle width="60" height="40" as="alternateBounds"/>
                    </mxGeometry>
                </mxCell>
                <mxCell id="132" value="" style="shape=partialRectangle;html=1;whiteSpace=wrap;connectable=0;overflow=hidden;fillColor=none;top=0;left=0;bottom=0;right=0;pointerEvents=1;" vertex="1" parent="129">
                    <mxGeometry x="120" width="60" height="40" as="geometry">
                        <mxRectangle width="60" height="40" as="alternateBounds"/>
                    </mxGeometry>
                </mxCell>
                <mxCell id="133" value="" style="shape=partialRectangle;html=1;whiteSpace=wrap;connectable=0;overflow=hidden;fillColor=none;top=0;left=0;bottom=0;right=0;pointerEvents=1;" vertex="1" parent="129">
                    <mxGeometry x="180" width="60" height="40" as="geometry">
                        <mxRectangle width="60" height="40" as="alternateBounds"/>
                    </mxGeometry>
                </mxCell>
                <mxCell id="134" value="" style="shape=partialRectangle;html=1;whiteSpace=wrap;connectable=0;overflow=hidden;fillColor=none;top=0;left=0;bottom=0;right=0;pointerEvents=1;" vertex="1" parent="129">
                    <mxGeometry x="240" width="60" height="40" as="geometry">
                        <mxRectangle width="60" height="40" as="alternateBounds"/>
                    </mxGeometry>
                </mxCell>
                <mxCell id="135" value="" style="shape=partialRectangle;html=1;whiteSpace=wrap;connectable=0;overflow=hidden;fillColor=none;top=0;left=0;bottom=0;right=0;pointerEvents=1;" vertex="1" parent="129">
                    <mxGeometry x="300" width="60" height="40" as="geometry">
                        <mxRectangle width="60" height="40" as="alternateBounds"/>
                    </mxGeometry>
                </mxCell>
                <mxCell id="136" value="" style="shape=partialRectangle;html=1;whiteSpace=wrap;connectable=0;overflow=hidden;fillColor=none;top=0;left=0;bottom=0;right=0;pointerEvents=1;" vertex="1" parent="129">
                    <mxGeometry x="360" width="60" height="40" as="geometry">
                        <mxRectangle width="60" height="40" as="alternateBounds"/>
                    </mxGeometry>
                </mxCell>
                <mxCell id="137" value="" style="shape=partialRectangle;html=1;whiteSpace=wrap;connectable=0;overflow=hidden;fillColor=none;top=0;left=0;bottom=0;right=0;pointerEvents=1;" vertex="1" parent="129">
                    <mxGeometry x="420" width="60" height="40" as="geometry">
                        <mxRectangle width="60" height="40" as="alternateBounds"/>
                    </mxGeometry>
                </mxCell>
                <mxCell id="138" value="" style="shape=tableRow;horizontal=0;startSize=0;swimlaneHead=0;swimlaneBody=0;top=0;left=0;bottom=0;right=0;collapsible=0;dropTarget=0;fillColor=none;points=[[0,0.5],[1,0.5]];portConstraint=eastwest;" vertex="1" parent="119">
                    <mxGeometry y="80" width="480" height="40" as="geometry"/>
                </mxCell>
                <mxCell id="139" value="" style="shape=partialRectangle;html=1;whiteSpace=wrap;connectable=0;overflow=hidden;fillColor=none;top=0;left=0;bottom=0;right=0;pointerEvents=1;" vertex="1" parent="138">
                    <mxGeometry width="60" height="40" as="geometry">
                        <mxRectangle width="60" height="40" as="alternateBounds"/>
                    </mxGeometry>
                </mxCell>
                <mxCell id="140" value="" style="shape=partialRectangle;html=1;whiteSpace=wrap;connectable=0;overflow=hidden;fillColor=none;top=0;left=0;bottom=0;right=0;pointerEvents=1;" vertex="1" parent="138">
                    <mxGeometry x="60" width="60" height="40" as="geometry">
                        <mxRectangle width="60" height="40" as="alternateBounds"/>
                    </mxGeometry>
                </mxCell>
                <mxCell id="141" value="" style="shape=partialRectangle;html=1;whiteSpace=wrap;connectable=0;overflow=hidden;fillColor=none;top=0;left=0;bottom=0;right=0;pointerEvents=1;" vertex="1" parent="138">
                    <mxGeometry x="120" width="60" height="40" as="geometry">
                        <mxRectangle width="60" height="40" as="alternateBounds"/>
                    </mxGeometry>
                </mxCell>
                <mxCell id="142" value="" style="shape=partialRectangle;html=1;whiteSpace=wrap;connectable=0;overflow=hidden;fillColor=none;top=0;left=0;bottom=0;right=0;pointerEvents=1;" vertex="1" parent="138">
                    <mxGeometry x="180" width="60" height="40" as="geometry">
                        <mxRectangle width="60" height="40" as="alternateBounds"/>
                    </mxGeometry>
                </mxCell>
                <mxCell id="143" value="" style="shape=partialRectangle;html=1;whiteSpace=wrap;connectable=0;overflow=hidden;fillColor=none;top=0;left=0;bottom=0;right=0;pointerEvents=1;" vertex="1" parent="138">
                    <mxGeometry x="240" width="60" height="40" as="geometry">
                        <mxRectangle width="60" height="40" as="alternateBounds"/>
                    </mxGeometry>
                </mxCell>
                <mxCell id="144" value="" style="shape=partialRectangle;html=1;whiteSpace=wrap;connectable=0;overflow=hidden;fillColor=none;top=0;left=0;bottom=0;right=0;pointerEvents=1;" vertex="1" parent="138">
                    <mxGeometry x="300" width="60" height="40" as="geometry">
                        <mxRectangle width="60" height="40" as="alternateBounds"/>
                    </mxGeometry>
                </mxCell>
                <mxCell id="145" value="" style="shape=partialRectangle;html=1;whiteSpace=wrap;connectable=0;overflow=hidden;fillColor=none;top=0;left=0;bottom=0;right=0;pointerEvents=1;" vertex="1" parent="138">
                    <mxGeometry x="360" width="60" height="40" as="geometry">
                        <mxRectangle width="60" height="40" as="alternateBounds"/>
                    </mxGeometry>
                </mxCell>
                <mxCell id="146" value="" style="shape=partialRectangle;html=1;whiteSpace=wrap;connectable=0;overflow=hidden;fillColor=none;top=0;left=0;bottom=0;right=0;pointerEvents=1;" vertex="1" parent="138">
                    <mxGeometry x="420" width="60" height="40" as="geometry">
                        <mxRectangle width="60" height="40" as="alternateBounds"/>
                    </mxGeometry>
                </mxCell>
                <mxCell id="147" value="" style="shape=tableRow;horizontal=0;startSize=0;swimlaneHead=0;swimlaneBody=0;top=0;left=0;bottom=0;right=0;collapsible=0;dropTarget=0;fillColor=none;points=[[0,0.5],[1,0.5]];portConstraint=eastwest;" vertex="1" parent="119">
                    <mxGeometry y="120" width="480" height="40" as="geometry"/>
                </mxCell>
                <mxCell id="148" value="" style="shape=partialRectangle;html=1;whiteSpace=wrap;connectable=0;overflow=hidden;fillColor=none;top=0;left=0;bottom=0;right=0;pointerEvents=1;" vertex="1" parent="147">
                    <mxGeometry width="60" height="40" as="geometry">
                        <mxRectangle width="60" height="40" as="alternateBounds"/>
                    </mxGeometry>
                </mxCell>
                <mxCell id="149" value="" style="shape=partialRectangle;html=1;whiteSpace=wrap;connectable=0;overflow=hidden;fillColor=none;top=0;left=0;bottom=0;right=0;pointerEvents=1;" vertex="1" parent="147">
                    <mxGeometry x="60" width="60" height="40" as="geometry">
                        <mxRectangle width="60" height="40" as="alternateBounds"/>
                    </mxGeometry>
                </mxCell>
                <mxCell id="150" value="" style="shape=partialRectangle;html=1;whiteSpace=wrap;connectable=0;overflow=hidden;fillColor=none;top=0;left=0;bottom=0;right=0;pointerEvents=1;" vertex="1" parent="147">
                    <mxGeometry x="120" width="60" height="40" as="geometry">
                        <mxRectangle width="60" height="40" as="alternateBounds"/>
                    </mxGeometry>
                </mxCell>
                <mxCell id="151" value="" style="shape=partialRectangle;html=1;whiteSpace=wrap;connectable=0;overflow=hidden;fillColor=none;top=0;left=0;bottom=0;right=0;pointerEvents=1;" vertex="1" parent="147">
                    <mxGeometry x="180" width="60" height="40" as="geometry">
                        <mxRectangle width="60" height="40" as="alternateBounds"/>
                    </mxGeometry>
                </mxCell>
                <mxCell id="152" value="" style="shape=partialRectangle;html=1;whiteSpace=wrap;connectable=0;overflow=hidden;fillColor=none;top=0;left=0;bottom=0;right=0;pointerEvents=1;" vertex="1" parent="147">
                    <mxGeometry x="240" width="60" height="40" as="geometry">
                        <mxRectangle width="60" height="40" as="alternateBounds"/>
                    </mxGeometry>
                </mxCell>
                <mxCell id="153" value="" style="shape=partialRectangle;html=1;whiteSpace=wrap;connectable=0;overflow=hidden;fillColor=none;top=0;left=0;bottom=0;right=0;pointerEvents=1;" vertex="1" parent="147">
                    <mxGeometry x="300" width="60" height="40" as="geometry">
                        <mxRectangle width="60" height="40" as="alternateBounds"/>
                    </mxGeometry>
                </mxCell>
                <mxCell id="154" value="" style="shape=partialRectangle;html=1;whiteSpace=wrap;connectable=0;overflow=hidden;fillColor=none;top=0;left=0;bottom=0;right=0;pointerEvents=1;" vertex="1" parent="147">
                    <mxGeometry x="360" width="60" height="40" as="geometry">
                        <mxRectangle width="60" height="40" as="alternateBounds"/>
                    </mxGeometry>
                </mxCell>
                <mxCell id="155" value="" style="shape=partialRectangle;html=1;whiteSpace=wrap;connectable=0;overflow=hidden;fillColor=none;top=0;left=0;bottom=0;right=0;pointerEvents=1;" vertex="1" parent="147">
                    <mxGeometry x="420" width="60" height="40" as="geometry">
                        <mxRectangle width="60" height="40" as="alternateBounds"/>
                    </mxGeometry>
                </mxCell>
                <mxCell id="156" value="" style="shape=tableRow;horizontal=0;startSize=0;swimlaneHead=0;swimlaneBody=0;top=0;left=0;bottom=0;right=0;collapsible=0;dropTarget=0;fillColor=none;points=[[0,0.5],[1,0.5]];portConstraint=eastwest;" vertex="1" parent="119">
                    <mxGeometry y="160" width="480" height="40" as="geometry"/>
                </mxCell>
                <mxCell id="157" value="" style="shape=partialRectangle;html=1;whiteSpace=wrap;connectable=0;overflow=hidden;fillColor=none;top=0;left=0;bottom=0;right=0;pointerEvents=1;" vertex="1" parent="156">
                    <mxGeometry width="60" height="40" as="geometry">
                        <mxRectangle width="60" height="40" as="alternateBounds"/>
                    </mxGeometry>
                </mxCell>
                <mxCell id="158" value="" style="shape=partialRectangle;html=1;whiteSpace=wrap;connectable=0;overflow=hidden;fillColor=none;top=0;left=0;bottom=0;right=0;pointerEvents=1;" vertex="1" parent="156">
                    <mxGeometry x="60" width="60" height="40" as="geometry">
                        <mxRectangle width="60" height="40" as="alternateBounds"/>
                    </mxGeometry>
                </mxCell>
                <mxCell id="159" value="" style="shape=partialRectangle;html=1;whiteSpace=wrap;connectable=0;overflow=hidden;fillColor=none;top=0;left=0;bottom=0;right=0;pointerEvents=1;" vertex="1" parent="156">
                    <mxGeometry x="120" width="60" height="40" as="geometry">
                        <mxRectangle width="60" height="40" as="alternateBounds"/>
                    </mxGeometry>
                </mxCell>
                <mxCell id="160" value="" style="shape=partialRectangle;html=1;whiteSpace=wrap;connectable=0;overflow=hidden;fillColor=none;top=0;left=0;bottom=0;right=0;pointerEvents=1;" vertex="1" parent="156">
                    <mxGeometry x="180" width="60" height="40" as="geometry">
                        <mxRectangle width="60" height="40" as="alternateBounds"/>
                    </mxGeometry>
                </mxCell>
                <mxCell id="161" value="" style="shape=partialRectangle;html=1;whiteSpace=wrap;connectable=0;overflow=hidden;fillColor=none;top=0;left=0;bottom=0;right=0;pointerEvents=1;" vertex="1" parent="156">
                    <mxGeometry x="240" width="60" height="40" as="geometry">
                        <mxRectangle width="60" height="40" as="alternateBounds"/>
                    </mxGeometry>
                </mxCell>
                <mxCell id="162" value="" style="shape=partialRectangle;html=1;whiteSpace=wrap;connectable=0;overflow=hidden;fillColor=none;top=0;left=0;bottom=0;right=0;pointerEvents=1;" vertex="1" parent="156">
                    <mxGeometry x="300" width="60" height="40" as="geometry">
                        <mxRectangle width="60" height="40" as="alternateBounds"/>
                    </mxGeometry>
                </mxCell>
                <mxCell id="163" value="" style="shape=partialRectangle;html=1;whiteSpace=wrap;connectable=0;overflow=hidden;fillColor=none;top=0;left=0;bottom=0;right=0;pointerEvents=1;" vertex="1" parent="156">
                    <mxGeometry x="360" width="60" height="40" as="geometry">
                        <mxRectangle width="60" height="40" as="alternateBounds"/>
                    </mxGeometry>
                </mxCell>
                <mxCell id="164" value="" style="shape=partialRectangle;html=1;whiteSpace=wrap;connectable=0;overflow=hidden;fillColor=none;top=0;left=0;bottom=0;right=0;pointerEvents=1;" vertex="1" parent="156">
                    <mxGeometry x="420" width="60" height="40" as="geometry">
                        <mxRectangle width="60" height="40" as="alternateBounds"/>
                    </mxGeometry>
                </mxCell>
                <mxCell id="167" value="" style="shape=stencil(lVfLctswDPwaXTEEwec5Tf8jM3FqTV0747ht8veFRpUqQsq6uumBJbnAYkl28vB2fHo9dN693a6X74ff/fPt2MmXzvv+fDxc+5s+dfLYycPL5Xr4dr38PD+P769PQ+Tw9OPyaxjhfcTlTCkNKO8+xi+R4vjh6xh/6s/L+EhVmnjO5AIAhGm8CeALxQwAmbg2AEnECFApt4AQKLvPAcWTcMtZKHkACFRLA0jzENuAQtzOkCpVkKUaLaDwlIZNADtHzjWIqiQimCJbEjopBDCl0AIyBQDQJf8dbwYUKkBMmhRnAFpLMEPUNLViWuRhExGYgtgpEgD4SuIsiQgq4d2KhHYE0CsHSmIL4YGaeFbnotRQHNpCZgYmD+TntWFabZRKEQAkrgCFPFhSKFRzC1DnAaS1w9aAWIANJBJvl4SyNCzAW9ICZhj6pdi0OgGAas21zqw+A7DRkloP4KC/vVFrogI4lGizpPJGTZ1l+r1ooAjMMlYqq45DHEKkUi2ggBYVmfprwQHN4D3llZMhw2fd5UzhInQyXmdJqCAT2A1gazNqt0hLxdp9dhQA52xdSTswozpTbZWnmygs8+Rx8y4dJ0bbVSa3OgYE0Gxqie167pwzmPKug8xqv8UHJbYWrPxBNoOVg58UuN33lNsOYCogl5xsvKMK4pWbSyZewOolWN+6sysLRd4RH/20Z//fepKzloL5pmzFjPOppmjEjMule1Pco4bdp/K78frw7wrw0p9O4w1i+d9eGfTTeN2Qxz8=);lineShape=1;" vertex="1" parent="1">
                    <mxGeometry x="1226.166288362552" y="35.17619947910392" width="1.8187004292203397" height="12.600045788354409" as="geometry"/>
                </mxCell>
                <mxCell id="168" value="" style="shape=stencil(lVfLctswDPwaXTEEQBLkOU3/IzNxak1dO+O4bfL3haqRY0IuWN1kGStgl3hx4Ie3/dPrbqDwdjmfvu9+j8+X/cBfBqLxuN+dx4s+Dfw48MPL6bz7dj79PD7Pv1+fJsvp6cfp1/SF9xlXI2SaUBQ+5jcEwn9ffJ3tD+Px1p6AQmOPEUpyAGgBxMD534BSQdqImCCKAyiQUwOIBMEDCBRpAAmhFBfA2ACysqo+oA0pV6jkks6tSqKfcDhUBmpVKiprdACyaHIFCFTn4DAECG1MNbsk1AWXFqAu0GVdjIcC4ugqBUJuAdXNjcyLijeA4niIshzsNb8/dbiLYIRYrQuPBApktgBySAhgtiolR1YEFHsMyUnvYCnrOSdPI9syaloY3Y+HQcwxx+Xg7wLo6v8GQA4g4pKYVwC7FZ0KYNgCEIbIW0Iq2faMDmkV0VaPL+uUZsaDf26aNsVwEB9AUOKWzCu0tPb/TO2s3wsW4BVPIsgb6zNDRuvCawFaP3VVn16TwQBYrUweCVpF5PfJrY14qz1Zwp3RkEHaTO3MHhUobppuSHakd+YnrtKiM6EVgC3nzg6AaEd6Z8tQ0tSq1Ntj7DDsLEpi7Tub2Kq/+Juelo0179A1Y1DnordeZLvxBLcGpqmTjL2nJkfAYuzRUTOupprfVtJKTt8+Jyj2+148kmy++Xy1BOMWPXX3Sm0T8s9L5yO38fv5sPli0bXXh89bzMt4OMyXoNv/7a1HX803Jn78Aw==);lineShape=1;" vertex="1" parent="1">
                    <mxGeometry x="1228.9191362031936" y="63.482186659810814" width="1.2032714884135831" height="19.517038436721784" as="geometry"/>
                </mxCell>
                <mxCell id="169" value="" style="shape=stencil(lVnLbhw5DPyauRJ6Szxnk/8IEGc9WK8dOM7r77e0A7VbVHcZvo2npyyRLJaK6kv88P3+87e7S3DfX56f/rn7df3ycn+Jf11CuD7e3z1fX/DpEj9e4oevT893fz8//Xj8cvv72+f+y/7p36ef/T/8vuFikBQ6Krg/t29Ck+j//+bTDfBwfdwDnLg6AaKXoOeAUCX7GVAkJALIUnQCJCdKthSiuDIDsrRKAE58mgDZS87nAN8ktRlQJTkCqFLzBChBcqOAMtehVL4lAOYYapDGY9A5rbVJI1sK3gJaFM/SWm0dWhm1P+ZSkjKntTWpZIUUJccZoOLCOQB1VW9XyKRwWQf7N0CiWSpZkgE4iZEAdDze6lBox6GuJkv4xhcCAPvnFcClyADg0sJWR2KoKn5eIfMVkBM3r5DD2OQZwIoAVIPFgBad+yH50bRnaU1zDBF5I9RApdu8ArRQGZewpbkfAtclsNX0NHowk6Chc0bIIAuBbCni8VwHjzqQFYKOxxsAlSEA5MRkyWepDBBG1ndBs8Lh+IgzNbrwsKCL6NxAOOMqXyHPQSOqTM44MMcbQJBAdAmP1ZAvcqnEkWVO0SSRrBCKVW8AMlPvKG0BBNKiKJMhH2Jgyud1iMrOOig/FGuzdWBSCUBe3EwihcOhGAw1ilSSVsRguYTaM/uzyExIQwvP7I+ldxwe7RjQhlHYASKpdPSW3gAwIQMR/BKDsp7OotWmNRHP11vUiEATz1u0mX5wXASgQgv5Kuu4OGRrR29P6I3/5+cYet6Yb23ikgUwz9ezvqyQ2Aph5GQXQ2H9oNYJ9AGBcAkN5NTWofGOeycgWm1FVGzg8KC3OYEKFTK/zEA6uHL8+2z7J1PqdSM9V8GPFj/TekPVN6ito1Ve/78nv4eT8qbIw6gc2xIY0Hn/RQphHXyPtQBu2I4zZ2X0xYPXBFA3Um4ApSlqy9TaJY/5z2WAC0qPHk3jwN/1JpvHFEfPvCWMucz3eOdsN6OSLE2qNog+55IlsCc1gEL3pNXa9AJVJUKvi3krhYok8mpkuLpxyB8DgnVKlbcnSm2C7hMcCRpjcJzr0DIfyKqNoW2VOQYgifMKGimgzyZzWpHoQmLI2x3MBtAR1Zlo2MnBvSFL2EG0S7Q3jMysY52P7IbCWRcNPjrCPsiKMyukcWdxXGrx5mTYro6OYx7XFztmMFvvl9sGR6XVWaEEtzPZz6IYaB52hbM93bozUcFwdjrMm4IcV8xapBzpXSC88Ew60LCQ37dh3neXACze7hWWy0llgDSuj94xw8xbwrTK3AVyai4yAj9IOonWCYO1TVimpEjd+etZubNgyoaePKauHYDpF3JiRLsDWJaavRTrW2KdubROn5LYDOPH471l4BcZ5lhAHdgs2S8BDCDTbnsdQHZjFb01CMscVvkc9u7XAW8D8OH17cPX68PD7eXF/rl9W4Gvbm864sf/AA==);lineShape=1;" vertex="1" parent="1">
                    <mxGeometry x="1227.5387807862985" y="97.23354570788537" width="11.25582910227077" height="19.491799477058688" as="geometry"/>
                </mxCell>
                <mxCell id="170" value="" style="shape=stencil(lVfbchoxDP2afdVYlq/PafofmQkpTClkCL39fbXdMcFiOcu+LbYOuh5JHuTpY/vyvhm8+zifjt83v3ev5+0gXwbvd4ft5rQ769cgz4M8vR1Pm2+n48/D6/T7/WWUHL9+HH+N//BnwlVHqY4o7/5OJ55c/n/wdZLf7w7X8kyBO/lCId2XL5Vy7OQ5U2EAKBR7gI/kIgBkSqUDiFDyEOB6DUHIIR8SxT5G0VMGQVKATx0gMdUKAc53gOxanO9q6J3OmUKBeYiuz5s6DUyq0vJ6AagG4DQ7R65XURUBMqfX0jtRSwvcPSeKswAU11xaYi8AjQPQkIQkW0AFiQiZfF8bV3GYRYgyqFoVBdSrEiaJBQSgIRMnG6UMnGbibOWRB866rIlkUBmh0fEin1qU5+0RyibNsXWpWYC/IagCGLAhKB2NSaGdzAJiIXZrAFnpIzcm4RYgvMZpvbbswWHVqslGA86blkExPuDCqJ5KWFN5xZPc8BOVdiq2jS2QRzt1WsnPRImtCtQClD/1hp+oybBrlfBgG/M3FuE+OduIw0p50LiVbn2aF0fDyuEzdgAzD/F4U0A18xAP0FFD78PCiFaAWXwWlgD2VFetGQqQ3umFRYa5ZenBVUnz4NctY7av4mWv2haGd0k1x0xCpojnQs1GngGTudpV0i2NkVKNvIBwSmzmfsozyFeIdojgThRD6zuPyadgZw62R2cU+xX+FmdXQhzPcavt7cH5GndUHh6vh9Vvl0V5/fh8KL3t9vvpnXV9bx9WejQ9yuT5Hw==);lineShape=1;" vertex="1" parent="1">
                    <mxGeometry x="1226.9254229136207" y="143.6334553449843" width="1.2182354463308505" height="23.807932059192684" as="geometry"/>
                </mxCell>
                <mxCell id="171" value="" style="shape=stencil(lVfZctswDPwavWJIgOdzmv5HZuLUmrp2xnF6/H2hapSIoL2q32QZKy6AxcFBHt72T6+7gd3b5Xz6vvs1Pl/2g3wZmMfjfnceL/o0yOMgDy+n8+7b+fR+fJ5/vz5NltPTj9PP6Qu/Z5x3jpybYOz+zK+YXPn34usMOIzHFaAWyr6x9568AEClGlpAJokQUKRlFMg7SCnWBiCeIvIhUzIAPTNDgGspBT0TUUoUUwOIiSqiFCjGBpAiOQYAb8OamSQAgKPSJi5rKpHTzlIqgcRDQG6jVAqVehtQKuXWh8qUAKWSKLeJ08ygPBRZ8voBKCRArVlP4BZQyaXbgJTIZQtIIEpRlu+tABVQUm0a8U0AEFaOFKIFoEx7odxRYnBCJN9FNQGxuqUcV2kr0D6Y72v1AAcClWTtPXaYDSGNGQqpnhAtwAHhicrMuBBgDiJT8BZQgI60P0RvKXkQVJU2VwtIQNpaPIltWAXVsxaPiVImBpRKXIpxJSRUbblS7AAFFE/qpo9KO4DpE7WhdPVcAKUgtmOsZup1MXUDruLxMw3Mrj4DmCa5S1zBB1yxRxO32xmmPIOg3mtfuv7CcGXwH8pfTZ4MhKceG0Y62zxqAKr89gSdnmhUifY8A2BiBNDR16oiBdj0RKy0N3YMBZi2urHFKKXS+rCxJ+neVQ0Ab2IapdRS2tj1prC2gI1tUgmYlWFjX51OuGchnjw0CzF2OSyl+2nvQZ/XkHObZrdsr9f7UTcX3NI9bg2eKsYejZHk7f6Cu5124GD5I/uc7bKA+Wjh1nqHv7o4s+WP4qkzz5n+DvOlrdPwwXq4+wb2HwB9+LzwvYyHw3xfXP9vL4j6ar5cyuNf);lineShape=1;" vertex="1" parent="1">
                    <mxGeometry x="1229.5781168379203" y="182.6929157556538" width="1.4340519213457246" height="23.74644357471668" as="geometry"/>
                </mxCell>
                <mxCell id="172" value="" style="shape=stencil(rVjZbhsxDPwavxKSKInSc5r+R4A4jdE0Dpz0+vtya2htUpsJCvTNB7nLY4Ycacc3r493L/tdCq9vp+PX/c/D/dvjjj/tUjo8P+5Phzf9tOPbHd88HE/7L6fj9+f78/eXu8Vy+fTt+GN5wq+zHzNxWLxS+H3+pVDlvz98Pts/HZ6v7ROlYuw71QbsA6Vs7KO+oLzvkCp1G1AK1DNw0AxsRMsjEnCIlK2DFiFU6FCrcciBBDkwpWQdhDKokkYcou1CJhFY1mjfUCO1DhwKdZt0bSSgDzlRsSFJHp3ZduiUnEOnBqBUhKqFRsujlZsOtfqkW6UC+iB1VH11EAogJNEqWQdp1EDSwpQtNCTBKkmg4PpQqIBO699i31C0cSAHBULt1oEH4Lf7oFWyjMuNGLxBwewomjMFhFYFwkQg9AadMsXmwNppNAS0cRZ8vOJ30yE2ymKnhsCQYqRuQ0oJMq76wRo7nGM8DcpGFSApjpKv9hUSWoFnyRMzfL4Obhd/IgZki1QsdaI+Acy8PJi4chNzmZItv7YLVF/b5dKtsFtajJbc8yNYItoc195GAQE0UrT2HdJeweUArRlBBvAo3+rAEA/LGxyAlER4DboBHwUieuGYnXVKgYIgXShMux+NLq1JmhwE0F78uF5gjrYgRfEZRDRWhhi6KlEG9lvqiEFJgy+QNjlCEruhFbGY4pHdBaUBcFgXsg1fYPX7AOSFkx08XXMr4u3RBBKPBhnC7b/Yq4YKU3cTGCp5GkIKECQncvMV0pSR0tTd7TQUR7iK6zTnOMOiqsLp0+6OAEKL6nPiVzENQlLV51BUsLxubYzy1UHgoaXzBDxVVSCHLp6Xgo8IXU9BljhNq4QmV5iovGhTRB6dJDbrnoZw23aIYyOtDpoWKFObz3Yd8rl2T9CrtLbxOsmu3uAezLNDgfJX0en2oJaJQRIqFJ1e1kagGaxa09W16YkSaQXxW0GPUowGXxgprnitUI1UjyUlRAM5p3EwWynaP9B2bg3qZItITXkgMU44+QO2qqkM4tHDwDRX0dRTndAcUPMYnO8pEfFyEx3r4iRPGctN8QEluBjiNPIibvCqvS/2iJf6txODAeqWJb3s7FEDlDMteHsUj3gGhCE+t+27R0TA11JxjPNLfdBxYrn28v1iEP9yo2TtGV5tqH12SxNeGP3ztd2H9vrhckf4cHh6Ol8xXv/v7xT1p/N9JN/+AQ==);lineShape=1;" vertex="1" parent="1">
                    <mxGeometry x="1276.8129352759083" y="30.48343977367309" width="9.342038909655207" height="15.944374123444716" as="geometry"/>
                </mxCell>
                <mxCell id="173" value="" style="shape=stencil(lVjLctswDPwaXzEkQBLkOU3/IzNxGk/TOOO4r78vVJeyCFnb9uYoXBHPxUI7uXt/fnjb7zi8n0/Hz/vvh8fz804+7JgPr8/70+Fsv3Zyv5O7p+Np/+l0/Pr6ePn77WE6Of36cvw2veHHBZcLZZ1QHH7+eUJSfz/4eDn/cnhdno+U23A+Rkq6DUhKOYyAQoIAQpkHAAdqvA2QRlxGQIYmSaJWB4AEigIAZsB4w/QKYBKrj6oZmTIAMJXxBoubJgCYLZ7zlqjGbUCcDeiAEoiBSQYoY5RKoQpKg600xhuUSZAPxYdVlUKAiQvjDTVQRbUUqTpAogJMyoHEARRGyYLY4giolEGUNFBhDxDgtBZKYwNVgWE1QB1v0EoMSsOizmkEBMoFAsrodGFi0A8GqI5lhBrouOmGEWD9EJEPpVf/DGCYOBWKY6bFyhHkoax7mqkCH0r0tcQNMl+e3zcDCkxcWrEGC6QZYyFXrUY8EVSrVIorMs7oBu3UO9N9JUXsXSmMxRcxzZgPOoY1Zlh8FiXHfBEXX8o+DwZA8yG13i4zgHugb2daiFc3cAMAIwF3Q+qvuA2ofUAtolRQta6YL2p/sgXwSqDBas2tGzDXUqSAAOrDatWKeMlGYBmp0vpBQU+bmgnuhkSCOk77v5cAVBrSx/jSJOBDCqTinS6o46rPg4U1oo5TP6ctcWigGEBHp600Em5RF1YrPqRmbE6vyxvmIfWYLBoI5mEesv/aorziJSMBVEt55YNQRdWab/ASAhQL4qjIjCoRt2q+IaUTuKFaTFy1pj7qbwOal3A24zKIUkveBxN1Anxo6qNkBa+AKpv1w9hAUw+CsdvaSkqbuAZRMgCPHWdsG5APzfOSSemEAV4ZJ5jpGEJXzrNKjFCdWJicdjCl21CYVltTEwogEXXFlZZLRkp3ZdKUGlB91hDVjaBrHLYGr9MzdgWacmkeIAsnGiLL3IMyA3J3a2tXdEtN465wtlY/dqm23Q6YZEyXV1tQRaO9F8KilgJywdO9Zkgzq1otFUrv4GlsWjfA/DHh7fqzwBSIV8WToEOs5+2x+YX0YYydsRa7BgqQjUunfCT2Gby1rDenfApUDcbryQmZCEWxOe1lt3ZWux1U9iZNGhdlwRrBlV1flTeXezesoCqxPUDdgIYhMo3hFIDt+uh89vo2QJI3LZn8eSQwrCiF3XnIdbGvRYv3o5XBEta8/ehTYFrpSAro/dl3QYSi8Nq01/xmtCOpZ16BXTydd9/cYFP+96fSv563H9fvsk+Hl5fLZ93l//13XHt0+QYs978A);lineShape=1;" vertex="1" parent="1">
                    <mxGeometry x="1272.6320146337112" y="66.92302032779584" width="9.261763068478354" height="18.668749696877992" as="geometry"/>
                </mxCell>
                <mxCell id="174" value="" style="shape=stencil(rVfZbtswEPwavy6WXJ7PafofAeLURl07cNzr77uqQEVcyhMU6JtMccw9ZmapnTy8HZ5e9zvPb7fr5ev+5/H5dtjJp533x/Nhfz3e9Gknjzt5eLlc91+ul+/n5/n369O0c3r6dvkx/cOvGRcS1TChPP+eV4Ry+rvwed5/Op7X+yOl3O13kUIAgEwudQDvqToAqBRNRAxPiH5IoZAvAKA5lw6gVWC5D0ieRDpAFPIIUCj0ScdKqd4H5GBzSFpWUKXCVGIHyEyR7wOqaykuAK1SBABtXB9SCa0zmwDHTMwdokZyoBG1tJAXQKIMsq6BuK+r/gWDuhZNoqdrrW1luxEaklhAQa2uxH0jVnXYpl+lPByRQEzRWUVo1gXUVUUqBpAh/YKjXGwjEDkUML1bAwJlkHRQWzEhqYQQoA6tdtA3VNXJhMRUgZWpwlK0gAAAeWHzGgCqpILxMoQEJKQpGlVPK0hBeThBmt9uA5TNzjYuYYDlklIDaTRSGckHTii1MWdNb1TWUQ8VnpA9+R7wkUbV8XOyRxQ0hELzobXRIMkN9qpZOw8AntLQiIw1ahUUm2r/G8D3dC2RIuCGDmbDvoytT4bJmx28n3gdar3hp9Tqtg2QAcBwBrlC0tN16j3ogxMK/QlhsaptBVHoqaRly4BKsdnc6sKUUVHt9UdXGJjMYtSrK18EI3G4BggV0DKm1HPCQ4/0VvyeGA3PNviW4EmQezW7bdsZDk4XrGEznJv62vBZiwXCmXpr40G+Jc7eqBiatSRbTc0XtDZwuwy9lxNdhEMgZ7jTEtren+yI9dB2//nz5cP9+vD+rfRyPJ3mT631e/ttpUvzd5k8/gE=);lineShape=1;" vertex="1" parent="1">
                    <mxGeometry x="1276.1990146981402" y="101.75923881505766" width="2.8108969561692683" height="17.22929027437658" as="geometry"/>
                </mxCell>
                <mxCell id="175" value="" style="shape=stencil(lVfLctswDPwaXTEEwec5j//ITJxaU8fOOE7a/n2hUekasAVaN5nGiiKw2AUHevjcvnxsBu8+T8fDz82v8fW0Hehx8H7cbzfH8cRPAz0N9PB2OG5+HA9f+9f598fLFDk9vR++pzf8nnE1gPMTyrs/8wqBnxee5/jduL+Md5CKiEeC6gyAB3QC4BGcDUgoAQViMgEkAZQgFgOAULMAhAApmoeuVQAiAdqARAKQEAKZnxRkWlOBap2BwAUByBGKVbgIJAtd0M5Sbu87AxJQXgagc62wDVFT23RpC5Kn5pVocKNUKGoH5oZRiFzAJQmo5iEStb8vAMUAhAxecuMiDzcRxLWueoscjMRmzSYGoMGmDJh0lqymRsCsy4C4HO/0kZlc1Xg/d5dkEqtOtphEkFWZecXgqueGrxrgDM0I2D74DPBN2G4CYtEy1gFkag1/5ydN3YVrDj11dFmT1olmage7bkybos5gE4NzUqQqdZhXWLuv+tOiNstidBpgNU/kMq3sz6QNqCMB3D/1qj9tpQSsOk2WjF1ZItfhn4YsNOg6IV4bz54umdexhqCHho73JKiSFR1z4+zJbu65pxb5nj2Dk/nv+D+7jiREZ8DImqOdCYZ9U8Z3RqTcRrR7ZzA9K3SGvNiyfd8QyZYpy+shGNlB1DMqNiFb8ksXVbyz+jfo8c6Z3UhBp//cz7fZH7Sd2QIUo3YCOz5FLQ/293AzOR1vnZdFuq7JZymaDna92DWydA2bD6vvLN14fvh/QXobd7v5fnX5v75Q8dJ8GaOnvw==);lineShape=1;" vertex="1" parent="1">
                    <mxGeometry x="1277.5068481773658" y="145.520907391211" width="1.3519400104356967" height="18.3313324166478" as="geometry"/>
                </mxCell>
                <mxCell id="176" value="" style="shape=stencil(rVjZbttADPwavxLc5Z7PafofAeI0RtM4cNLr70vVWNvkWmMU6JsscyQewyFXG7l7f354224iv38c9l+3P3ePH88b+bSJcff6vD3sPvRqI/cbuXvaH7ZfDvvvr4/H328Pi+Vy9W3/Y3nCryNOmHpYUJF/H+9USvHvjc9H+5fd64V9LJSTsQ9MJQNApMwWUCgwADBlMYCYiDsESDUACcQCAPp3tIBOscAYajOAVCmgLOWRxAHIiSIKulHtBlA0rSAGidRs0CVTbgBQqWVb6EAhrQNSpmjrUCuVsA7IYSRxAFokQYDmqdGUGiCGUqin6Q11HVCZgnWpamVAWmukbitdOjGgRk0+rUWogRjUAbYuaRrSDYB1SRPdQMctAEsNLWVAQSvAplXaSMMqwBZO6dhBiyrVin3DoiMgrUrmZN+gTVtBDFnLZOugMtMAvTWJrqeDUAIxaMt394ZIBQGUGlZag3YISGvS59nCdajFSUNw7L71/GCfn6ESJ/EaI9i+eP/DaPDrJeDh7rBnSoAUqqESnT0aDNpYbjAwbP4SiV3BKAEKlan3ZQyWNfkq7PLPQB9L9Y1cb8ljtPnpJCjeNGThkqDIoWlwLi2Amqx6j5YmA4KdZXJJRtKuc657TisADX/VQtc0GnQDQWsXRNf3PBR5rS27DbrBMqt9s7M/33Io+LZE0qgRF5dTqO6aUtcGTBUVOXphZLhYKCnY28f/aK8jeZK5AjjXVKWmAiOStja1Ad4qeh6UvJhmaJXqOn/d+GtDC64CAvM0khOscu/UbR8khjN8AdgZrhMRLV8LYFqC0fxQQLNvKKfTyVqaqmVqaVCBtRAuaCVLRABds23llC0Mlq/Ofr1rFW7+uvKKBXSBW3Ntnq69DgG5rtptiPqZ3ye2rA3aasnU8Rasq47YyvUCNUCKz6tmOqLzDvs0aV4FnQqn5UUrh/a70Lzs1QLJdB5lJwDDI1jzIehRoSKh9yKQC9xHTqetU4M2KsAf9scvPQYjoZ8lhkcVV+yLnWvqYUfnch+vyiqSsDK2xcvBDFiqy0p2CaKG7Os0+ceZYY1B1e+nSFGXdbQ7+wT4oAlKfp9FQ0HDy35woraP036qgxz5P53fGW6DctoLzvkU0GByWr9PBIL+yNQAAqVXoieoyhi2z+4kDuslYfqYAPeKf/0Wd9teL84f/p52Ly/H74aX//sPhXrr+JFR7v8A);lineShape=1;" vertex="1" parent="1">
                    <mxGeometry x="1277.701128510279" y="185.40225208528236" width="8.872944307097677" height="16.608936570494357" as="geometry"/>
                </mxCell>
                <mxCell id="177" value="" style="shape=stencil(lVjLctswDPwaXzEkwec5Tf8jM3FqT9M44zh9/H1XdSiLsLWZ3hyFKxLAYhfURu/edg+v201wb6fj4fv21/7xtNvol00I+5fd9rg/4ddG7zd693Q4br8dD+8vj+e/Xx+mldOvH4ef0xt+n3HaJLYJFdyf8xNfpbl/T76eAc/7lyVAxeUBELyksg4ISaKOgCwlEUCQWgaARvGZAlIYABEAEgMAedwheWlshyjZD4AcxJEY1EmNA6C4/orbgCJ1rENBlkgMMUsY01qdNF0HpNzrOgOCaFgH4MQfIS4A7EhFbaVLkkqCngBjlnKREgkA1BhjSE0a28GLjmlFpR2pdK6dCEsukSxllTTuoKgMiSFFy9bQJFdSaZU8Bg06RlJpdFwaAb6IJzsEb4P2aFoC8FANs4OKJ3WAqHgDcKKfAEw/iPITmZZGy5KyQQJ0XM+bAZrlRgVwUkgNIAAhmPWOySpYkcz6QM6jVZIpmSjhdfS9E2ea0vyDdM1IpFQieOgS8/5K84P1YYzXe8mkbSLqM2qFxysII+BswThbpilScH4MAW3DGlN95/zCO6nvZOsK2CEx34HZRhuDZ63vulgtGpM5G0780VaLOgRi5wA4W2glxEBjutEUZnVa0yIdiYEcsMaMUkzE4tk4Al6OtEDKCO8w73g16x1bXyztXHf21fXVriekS6Ur8yX/jazP11I9G9Bty2zWlJFRR6Si5k6Y5YBHONe8BSivcUt9spnFfVaD24DaxXwmXaAu3poUM+B57jdu1vPlhEcaAVvYkbDS1kQQVlJTF+XbALUAPAnkSBUeOZoI9mTNUK5cClGxI+XZlS6+z40wQradPVNjTpjtbN5yZ/CaCpvRAoRkFxJIXjajdu5XlBVyiBt7FKUuBBB7C8/rAxUxbyfCHOnt4uo8uAywaeeK27FQEXPWRGC+LF5vaaSBSkyy7QxTYEbrcU8wppDp2I/3NTMsOHoTwXxXzG2q6+zt9bhy2nmWzVOYB00EpZNwrQvMCF+oBqNAzp4/sHnN2ZtXo5INgTa2NjUFawG9mu881fhpQjU1DrRk8brGsSvBGiCZIyV6qUDQpi9BO6ZdmMqDiaHy6eK/P9d8DsCPy9ehp/3z8/nj0vL/9msSHp2/ROn9Xw==);lineShape=1;" vertex="1" parent="1">
                    <mxGeometry x="1335.1753059386376" y="25.58550398910429" width="8.334214059686301" height="12.340739596224333" as="geometry"/>
                </mxCell>
                <mxCell id="178" value="" style="shape=stencil(lVjZbhsxDPwavxK6j+c0/Y8AcRqjaRw47vX3HdXQ1uR6J+ibs9lZUeRwONIu3r0/P7ztd8G9n0/Hr/ufh8fz8y5+2oVweH3enw5n/NrF+128ezqe9l9Ox++vj5e/3x7Gm+PXt+OP8YVfF1xq0tJABff78qRKzX8ffL68/3J4vX4/SujqfR/Fx21ArBK9BnTxiQCCVL1CSOLcNiAUKUEBopNeCQAr6D0jyMpWcBYw0tC2Ab5JzxrQJQcK8DpLOUspBFAlaUAJUsgeBkCntbT55DagS9GAmnhai3inAM2JI1yKUZxOa4vSCTWSk2QARSJJawagaUCWTrKUqzRnQ2okpJItW7HpQPqh+km1Ja08pFpspfGJSOpQu7SoK50nf28CEHHWWcp98ndrBV80AFkidQBzDPmG7hDyFaiGDinhEyStiDjrtIIsrKfRkM2oBnSE9HRC4XRI4C8DBIiArsNQKi5kXa8A5atshWxlBtJWPAeYkNyU582QdMcNpSJ1wKZb1QC0KNl09JLNfMhU7mOSbCZQmmTZmkB1BWDKN5hTbUiRbHpMg2A33UhaQebWbFor6emUbYsGL46tkCUYakRaB+yh6z2ALJFlCf1gAFUcGVmxTZ1bAI07gTytyBWATVFYB5ulNpXqNlv7aoU6h9htQJWcbJYS2cMYim1VBxZStro0Ks1EoFjlA5cab1FvehpsZYXDfFj3A2ErhNFkCR2XCVshvTVaAF1hpd4AdKbewToBbDqQTQ/ASsgYIK/sDyrN6F3KVNLrBiIdV+MUxgWAOU3S2oJETW+IJxuKrduQkOhAQuoggnHGmTrj3ua/F+vgpr+5bUOds7uGSSuE371bMsH/sCV6neq+OKwggaSpgxs6r3BErEeH69R0xRNPHBYsmQkJpWEjCNwwKtDBPqKVYJ/Tc7eXOcW2rLE5BKGWhbn1Yu39VS23JoQp9agll+OmRztq6fmhxhxfkSZH8uqdPR+3Sk1cnu5/eX8hy+0FJGlm1Eyt9KobSqPHB2c7uvh5XN6Ix9AiwyyxeWUTmipVvWRHA9xWYKcZ62MwXJi18su0vFLVTBbALDNuD3tKH9wGmGFVaSNgQjszrAKtMXxMNEdv2vxwuOYc4KWzgd5tjvy8ftg8d+vvL+fqrdlpSOqoq4L3LNG8z3RizJhkv8/iKdbmOTpBcDh1xeSH+v++Gv30DmCcPXWTRTplMSK9uU6iphPvO82fTI+FiKfo7xd6YfDfl4Yfvo8f/24onw4vL5cLzuv/2xtNPLrchsb7Pw==);lineShape=1;" vertex="1" parent="1">
                    <mxGeometry x="1333.8760667377055" y="67.22495506852404" width="11.25898454884793" height="15.700483396121266" as="geometry"/>
                </mxCell>
                <mxCell id="179" value="" style="shape=stencil(lVjLbhsxDPwaXwmJ1POctv8RoGljNE2KNH39fWdraLvieifIzXFIiyKHw6FOdvP9/vbb3UnD95fnpy93v84fX+5P9u6ken68v3s+v+DTyd6f7ObT0/Pd5+enH48fL39/u10sl09fn34uv/D74mdBUl68NPy5fNOlpn9ffLjYP5wfN/baZPnfxj4WsUAckpQ+OWgWU+IQpMTJwZKkeuyAAPJ8hWQSGnEwyTY55CBaiINKCLNDlk6yFOMIYDiUKJWFFKTNWSpdIru0is0ONY8grztUiWl26OPM63WIkudKN5PGClckzCe0tTJXHUwlmnfoduyQgq9DA7rIpVOSNtehIW8krQBC6j5LmVw6F0nzHWqhhSs62mV1UNoPpY6crNBoEgla8XtlrkNJEkhaEXGtM7y7dHICkugd0HGk0qirzT2d6qCF6w7dozXFAfgjh+RYg7do26EVVFiYAzp4phkAnjkgrW0+QU0iQSsKF2e0gguNnFCKp0pwYSdZAviCc0jSI4W36ziQZyDQSHkEsHEwcgJa1IdkklhP60ji6qDS2Ano6TI7RMoa1kXnOnCmtCZlPqBKIzla7Offz1JJfyIec1CVShgDF85zPDqwfpRRN9MDjR8lc80ZKIMlMKL//UTYAtzQXcHoeE7dF1hHQQ5JfrZPg/WP7NtMd5hrZJjn4Am4UbJD/HXGA+RAYQlto0M2LRBZRkEU8wxBk0V2AuZq9Q60ZhgJuzZmIgwg7dXfgTELuqCoz1JmbdykObUw+uKwLecrYLaTtkFAwelOMQbT4IlLqTzCxPNFk8hghArNMALOWY3faI9ZULw9U5zFvPhSbg/arS6frO0heJ18rHRwtCDVdU2gPNGyBxCmZSDaru9PaHT49eRVvCqVCL16KgJImSjvfaigdXbo+ImDTWQnspcBSjq5N9+YEAHsiF5GFtf5F2nr91Uhrw6FbqkQd65yAKOSO2C1CfMJkN3KxF0bI2AFX+Rq0MYSu1kUGDYQgGu3xrOEFdONfQCYzR0ssW7ZgYqupHAYVG4qdIg7trDZEBKrQxmz9zqnmh+F/ZUtNfvnhQ2ArwO8eXWBpmKXWCaf+Vsr6+oxljZpTSxL/s7YajNr0bFgrkiqY/hetQ87nlQa/44AsGew2R+GGt2sj0zP6q79jS60aYylDb+w9XQnHzHZjcS/iCfHwp2uUbHsBGekg2FJ6V5/kZB0rdBGcrIDdL9SMK2DDcL8rK38FU/N2bOVAse7+I0qWlxPs7NnPIEau1cUo5Ic0m9nzyAEALhVHC3JaKj797tMtdTy7Op6bLxfHNk75q2SX7F31E6n01ufgV+3x4f/b86fzg8Plyfr7f/9GzW+urxv2/u/);lineShape=1;" vertex="1" parent="1">
                    <mxGeometry x="1332.2245543514703" y="112.35497989741016" width="17.28581368732758" height="16.13280918187472" as="geometry"/>
                </mxCell>
                <mxCell id="180" value="" style="shape=stencil(lVjLchtBCPwaXal5M5wd5z9cZTlWxbFcsvP6+7BRZixYbbtyW0m0doCmgdnlm9fHu5f9LoXXt9Px6/7n4f7tcZc/7VI6PD/uT4c3fdrl212+eTie9l9Ox+/P9+fPL3eL5fL07fhj+YdfZ1wrVPKCSuH3v2+o9b9ffD7bPx2eL+xrIxFjHxPVAgCJSrWARiluA0qm2g0gJRJwpFypJgsQCm0boD83e6ScSSoAFJJgAUIpAUCk1AygFOp5GxA7RRvWGmEeNIjd+lCZAgirAoIFtEQdvyE5ZnRi5AP7PHAZgb4OEGIbJRacB01TNIBeKQeYabE+9E5JAJc0D9EDCohSqcSWrZ0pgijVTMEBMhXApSqULYAZUqM1imwTJ1QZAMT7oKrQQVg5U7T1oIcUIALcvA91ltR1gFAsFhAoA3r35Ato0RGQ6V6GRsya1kyDKGmamuWSqkZGTqsK2SilThX4wCtqqPAgmWmVmnU6BWqIS3WQeYpxoQikUtNUbT2o3BfggwKKTVwMVNEbqpfKPti42YBsVJkSSJsy0xFDywNVTxyqOJlHDWRZS8XlYCbluj1T9g03A71YatepKhXw/xwp2P/HzVDt2WU4UAcBVYDnUCIGpGOtXKtHcQ4d113uw8MJqNQB6VTxgiNdg62qZUrOBx61dx0QVkdqsKFrN5buAQEontaBH6wKnsQKsXNa9QMVf6FsKy3G0Sm2AN0eSVsRaM9ami6qDLNQuydGg9TWJIibeYjBeTTLbr7Q0gQpUBo5Zs+ZaYunbgZjXGoqzm64wP3gmj1umm7aUUYU4ICOKmy1VOfQBN4geUjDbDg6CgDOiabYdSiBhRZD8F1T53sGLNVXiD1TCXAYkTYEfQIaHApF9w/HowyLX8JoSRPQIfM0EckeSbnbP5heHFUFZq6HMdFdDOdotuBVn1J6ZcBuPYDYRqVedVQ+aQzKU17KRxLpZF4YAgr7glayoLDmVQWJjJXjOiCOeeu9ewZ4Ji0YXp8JbUlzr5uABheGODfHCUjQCV0n3ATWh/BcDysFW9M6fAuIavQzpK4DqP8Hv10otdDMuVIMneHQGhl97SwzKNCk5NtO6VBgZpe5WEXQlto9S3UTQetXXBVOLmO/2lzlrR7lABVPQ+TqYGm1+EqFHUDfAHKgLjoRXjYRXMvs53646pRVb8P3VLPLDHtVTGTPfn8McBuss3e/28PhYsVqrCttNZaHsfhsqW8vzh4Vve45TobiuB/asvcUgvdTustWby8gv2rPVoUyvFFYdmUbnwJbgdonq+wV8uF/L1I/tteH91vbh8PT0/nS9/J3f8urX51viPPtHw==);lineShape=1;" vertex="1" parent="1">
                    <mxGeometry x="1331.5840391484921" y="151.65237660015666" width="12.05139603423112" height="18.22221512657828" as="geometry"/>
                </mxCell>
                <mxCell id="181" value="" style="shape=stencil(lVfZctswDPwavWJIggDJ5zT9j8zEqT117Yzj9Pj7QtUoFWF7Hb3JMlc4dnFw4Ie37dPrZkjh7Xw6ft/82j2ftwN/GVLaHbab0+5sTwM/Dvzwcjxtvp2O74fn6ffr03hyfPpx/Dl+4feE40BFR1QKf6Y3iWL89+LrdH6/OyzPZyqlOx8DaQGARjn1AKWWbwNyJom9R0xVAKCR9gCOxO02QISK9ABzUm8DNFEOHSAXGLRWUu4AZlNBDCV7C2YTWSjN8zbaBICaKbUOUJg0AYCFWHtAocK3AS1R6pmuTC0AQCbutVQrJRBDa7MDM6ApBUDcFUChiADFu9TMJVAPFnTriTOboYK0qi+g0UmQJWNae7XGECgghBGh3gQqORXi6gECqBZzOfs0VSAmk39LnogKqBbTxgXVFQRtFqIDCMyrGLEOkCFAmdjFgPWtjap6AANtlA9xLgAJWLCizqsstDgrZwGooFeOBdbWZMmUk8IaHhZqXlBdkE+Vct/w74jJXFZnAcvV+lC7qCBUEDXNRf/JkisfWfxsVWshWdU4NFLOHhDQXNSLqHHzk8u84va6HpBI+rwaNYw6k5Vkrw2rEbTQjIC+DZR6DxD7tBqXqONLpOhme5s/cX2hKT5oZQxIfrYblRHom8XzkC1oEEOqfqTYytQAccmC7tVqSxmq0ZipurXPRgBYmRpxT0MssPUJiRuj1guBki66ki2BoHiCV0WE9X+RnjgvgNcJo9CPnjDP01uxNndcULvzW1KYN7nrvpvcxJ0PgKkovq/gThdt48n+PEj9mB3/fQbfTzbT/PcVcGX5cct5hFun3alCdOcFXZHW3sHunreH/xe+l91+P90Xl//7C6K9mi6X/PgX);lineShape=1;" vertex="1" parent="1">
                    <mxGeometry x="1339.2302375714519" y="190.9370219482905" width="3.413600531902971" height="22.89155612692051" as="geometry"/>
                </mxCell>
                <mxCell id="182" value="" style="shape=stencil(lVfLctswDPwaXTEkwec5Tf4jM3FqTVw74zhp8/eBqpEiQPXKvckUVyQW2AXc8d3b/vF11wX3djmfXna/+6fLvuMfXQj9cb879xd56vi+47vn03n383x6Pz6Nv18fh53D06/Tx/CFPyOuUa4DKLjPccFT8H8XHsbth/642O4rxaT3O6rtOoAdFa8AIRDX64DoyWcFkE8kvg5IjjhoQKYITkiVSlGA6MiBoLOQFDWAIaAISzroGKjG64DmptcLQE4AwKsY4sTbvwGZuGlApeQAQGJgBUiJAophVUqZKYMreSe0O4UoARaTHMG6NqqnhmgqVHUQtVFDUSdKmldZgQC5sU71cElQrnIBk2oBVATI1DSvEhWDRNQ46WUGBPLohEDFsBSpAFqF9aKLqSSYhzUgZ8oFX0mzlCSVQNTroMUXUH0PtBpBJGIEkDRp6xtEHXBpaGMS20ClsS6+mKkgUa/KO4XJF24UUHZT7m/VqLhhwRo1NlAaNMu10dQyrdxoZW3D+3hicQZseJ+zvC54uNHAtxDSI4JRaYOSyGXqCAsfQMlO2XYhqcgEeJJqaxogIqngBGm0xRi4RAVOCJmcpkmiQtXkeSVrhpKI1mhEc+gAtlmQ+QOZq7cUsWgQpHmejub94gGAUjf12HlcqtCVVvKU8Qr1K0fezHsFDkvOzhlexjfg9N62EkyPzFHGIskDSxWTN9Mn1HG2ZEr0SJK20W5o/v9G583t8vA9pT/3h8M45C/f26lelsZ/BHz/BQ==);lineShape=1;" vertex="1" parent="1">
                    <mxGeometry x="1209.8816839231451" y="36.58964082469614" width="17.07111763080421" height="5.461208349772227" as="geometry"/>
                </mxCell>
                <mxCell id="184" value="" style="shape=stencil(lZ3Xkh3HDYafhrdTncO1LL+HqkSZLNOiiqLT2xtt1pzd82Pm6907BmC2A8KP0NgP+ac/P/3yx8cPKfz5/dvXv3/89+dfv3/6kP/yIaXPv3/6+O3zd/vTh/zzh/zTb1+/ffzbt6///P3XH3//45dFuf70j6//Wl/4zw++0Y4yFlcK//3xL/UI5f//8Ncf9F8+//6avhyjvIc+HTMqfQT6eJT6ju/3eXS3ngz0/ZjhHevp7fzxJ3055gT6cqz/ezt9OmrX9QSgj0dw9LDfZuczlb4D/Tia0kc4n9aOrucZB9Cb/Kg8JLjflo6u8pno+9GvJ8H5t3BU3W+G86/jqPr9nIC+HVXlOVegL/6+Muy35vP4XugL3Fe180lKD/JTw5Ga0rd7+jKOofJZYP2lH0X3W+H8Szuinn+F/ZZyNN1vhfsq+Qi6X6SP5/G9jT7Po6o80/pz9+svIM+5+vOk+8rlyO5+QR+zyZvul+QnJ39fJJ85HFP1pYA8pAv7luF8ktk3p48gn6n7+0L6ejS1b7ie7O0bnU9KF/oO55+CPx+ShzjP5b5Nf+M4gpNnuK/YvH0gfYnV+yNcf7mwt/R903eHN+D8Y9TzfBjsa/qg6zd6uK+p7qWc+OYaLp3C8oocbqsf6T1grJ2m4CQ34wtn3/TrHbdqyOr5ZCYijXrMZ8NjRzvJ8x7t2bCtq4ajfMjJg76eru/a8quhih0tc1GgZ6pGltaA5PP3UzwyHGc5ceCD/uHKri3tMZ7Px77QAJnkoz2v/0U8buiL0I8jkqc4ktDPM9S4tmwnrj7pczwaeYqjP3/fXBmtJ6khz48bvKGvQl836xdHba6ekLmnH4gkPf08ofcd/bMhN2hT+fvP8mPQqYE+JgVKBs0GyGc6/f6D3uwL3m9+vl+Dlrz+/KxfBl0nf18cb8BIJ53a+qCPqC9J7U9NpwV74/fLCe3v6AXoNUZWJ8550PfT4r3tvuo8f+Id/fN+LRQjd+H0y0K9id8X4NxM33H9Epg29tT2Nfl+OzIhW72v1k8LeUNfxfmOo6N9Fvtmof9kf/G8/h4x8i3n7h70CaFJUfu5UiPoH8ezPq7UC0W+6u96R/tWj/h8Pn0i8qxqH0ZE+akKPEdCZFiP/qyPo6B/r6e0P+gr6nvT/Y5+3vgNvdiHMU6Ld0Ov+7XzRLjXn+9rBpSfdszn9c+E+LCr/Z8Z/eM4b/NBX1Af5+l9HvQmUYz801QGAhAWWkz3E8jCLUArDOwiLTiKjoGixxV9JWXotIeuVsUYyGtY/ChiNDvCdEPNzTOQXQ+aId4xJI1jdgxmqtt79uBjhx1DO1XrrQxdw9TdHuYJhl8zUPgQFN9Pxq8Gz0dwDGDgs0vF7RjKqZBvZajqk3cMTUH1jqEf7X0/Yahb2DCUcLUHuAeD9ZKRWCpKjjyduOMVwyCkYKHlUAYKzUq9sBrke4pzbsZAzsFiAUmbLdtKSxpHG8rQiWFqfmJyJszCB3Hok0stFj9MWVI5k5N3tQHVh8KQyjCbnFI+y3fXDFWrLesn0KabomxjwE2PM0P1iiERTDJDVpSBMoAWduimGYituON9DFlD3x2Dw7azYCxloYf66XL6pGuGoWXEWRkdXsEfCh970HyOMTSqzMajR8cALsviD69xyFAc5NswVC1G7xhMvNO7GIZT0Q3DfOeSRjijnNd2CW7awhwF6hWFb7gUujEkqvEXTR3NTVOAy+Uu8QZZGk2rujOjPqzYSBgSZnONQTLvM3K40VW8LV6a4KeNQQIgC8goIWT/LbjVPoEXNxS3roMG/2ArloDD7h7LE1OTiiZdlJSwmFAwnwk8bdoYxLaaSpG5NwYpQPWGjn3d67O5NzuCe4iaiemceTJRk5qq2cJEoWhSWTLzTMJn0i/We5N8MgZxiu1R2LxmKCoa5vXwlFw+qSVeUjkx5KsEICVgjUHwUp0YHi+z9Wwqaz+LHncMWvxvaPmmrw4XTFoZgziU1fBBm26Klww2ogI9anqv8toUKb5A81eJc0ocGoPWNBvLUtOgqXBT1HSo0kIQwt4r4nk+VgtyUDScf7C4Cy+ua/ludX6AQzEGOdZV36Gb7ooELDrtdNOeoWIFbDHIkjIGTRcMCVNe0yXtcsSi6zrWZ51OE6vAxhBdGRL1oSsyfsks3jJI4fVR2b4VPqnsFszCLX14Fr5VrOCfILnrVTtmjRPxTuFMFb7RLq1EHu2haroo9p2plPpKrHzTRTvbVi8IgJMVeT7LUsynA7h1isKQMNViDPoTAmZOzLGLj+MegelSAoPVJ2q4wUk+A0uu24sMwHBRIru3MbS7sKDqGKCV9WcMpIeLixNj7ubsEdpgo5fEVWYA7fx/xh4BoxfnvKEvmuvOp+m4o896nhTUG70kVxJ2Nw9XZEwcexbttk67bnSRt4gZsRV5ikLuIlVpkglYzRhVaz5hd78Sawc07CZvkqWPrC9NXX5ET7P0RZqmsEfD6LveF+Vt1/fFuZ5+5Hb9qo+Jzr9phicj6Frnr/Rkn40+O/2l8ymaCc8I0YxeoHLG7uAl/7qeyPri9GtjH5z+Ekxe9kHlk3oo3k3vgE3AwMD8hTSNBNb3oU1lERNTyz+q/aF8+colCM46HfgdHpDkXcGa83RNdA8UdQeBpCzSGK9XTfUNzN5Pn7hjSOb0dweYmlaDVxWdwyyVuMxH2rUPJ3JqfXbXGNrwic4cegmxoxU1BkGJce5+gvZ6Bsxuzqm4YykmbXpq90hKnP6Zeqw70Z4KndIjO3/LIHFZ53B3qjN+aa++YxjCMNGcTlcjzBEDiBiCptU2EfUVxyZon66RtqITWQwCStvp5m7PSbzUONOLt1cnbnMT5U+ty5eIVcIlr5IxSviuwGtE2RzrUDNQKsfgQ/sjSjtb4m7NgOxhcF5taMtlDZy5Gy4hmjgR11U0aubnDt091+OuqpVikiU11jln8FdJmZMnkr6vmxJE01RfixgFzqrZx5YYNlR9O9C4gOwz2a1xUtc9y2wdm0JWs5wrQRCUn+59Qo/Yv2hYRkSjZ7YaWTuWe90VOSTV1zurqHtD0AejDdeEPwIndZMDWIl1OmqhZmyyXlFTHIPfKRiDxAyr9kl7CPqkbdUNGUVrK9kGngTX45Gwe8EWoL1nGStsw/mHJfAUKQ3FM6tfiFNZgpg2nZJ2TeKnX4znbTApDIzWh6sSLgdAS0qui4RrFib9gpjmQGm9aHcYaFsvGio2DL5lY8Pgm0I2DL7tZMPgG1s2DO7R+2IA8e5BH2vMgV0kbajLegET1wxdXZYxEHQwByWh+oq86OW+a9CfXKh5KUi/ZqAluScqOwY3nGHVq+gNwHT5/o7lXcMu2RkBUtHatQSxABE9g2yuqZxbjaury79UV68Z8sWxUpaiuqdLs2MrWXWPyJcho7cwUwPkJd70WGW4riouKxZXuVh4n1tc5WG1hSDY11tcP+lENFOya/SamD0vyfnpic+NyyOb/YqBsgIW5iXPQF3ow7msDYMr7+4YqnuVsWFwNZgdg+u1WQz00itpmX3HEB1e4iUlF7FPblZbmZLqGHiugjrFiVB6VR61lsrJ3+TaDLcc2T2C2CwqXt01MbiE8eac4rySV2LoOnBpc3XR1XBWvoZ+QtUizpzYBRiLztCY/FRsPWxyDPiwKV7AE9y0i1GMAbsAXYP1wMr8cKZyYADuzVLHXgTXtTX5NW/VvpnJlYHiEvccfLsxMqupEacn6PoDxrnZvX7k18VZDdjYTR+Q+x0N0xkOw4zNnB1NyIzMTkHb+EbavPbX/QYMGdx0gz4QtLnpACtVgvTS2GFhE8lP1OC287uQqBliC5oIErrCm8VMkQyEesyV3gL6oG9C2sAnT0H1y+IfqiQHzW21irNYghaGG3d2BPV8FvxQz3JQe7V5vR+0wWwzHSCct/+g5+kDLiO0mW4QXNcrT08I2ka4mc7g6Xn6g18PT5dw+91MrwjaTbeZjuHuazN9w/Xtb6Z7BDdWkaeHBLWHm+kkvgo2sZDs6Xm6SnCNX/y63umLxRWU3XA40cIK8qfBNXI93gjc2R9pFIvY8Bk0CnqZVHVnP6Va2zFUjJpvXQgHzjNqo0wqOGfNPXpdHhDXI/Y8BbT/SWtAcWCk6xo9DYZj4KDnH1m/stqHyPYq6/mvwWU4bUTKPwNjhqzJPX6ZlLUtq6JzKQpuC+eTfJMYQXPfG421N/cwLGK85uatRi76anQXUSxjVBzADUomJVU3S2Yh+qlj6OZidX0iHDq6cYHc+e7HEXJl1Y875LYVP04x8VAkN66RG778OMjMGYuLhmJyQ36cZcbOIT8uc0PvxnHyevy4z4ylQj9OlBuQ/bhSPn8/DpUbxv24VZYHP841Ydjlx8UmHlvgxtGyvvhxtxt6N053Q+/G9W7W78YBs/76ccOsv36cMd+XH5fM8uDHMbP++nHPrF9+nDQPefTjqjNOgPDjsDOP/3aVxw29G+fNQxj9uPCMYbsfR56x8OPHnWeu8F3YN2rV9OPa+UGJHwefsQXRj5vPWJb14+w333fj8jmN4Mfxbx7QuHH/GWu4/tcJbB+sDLceftBQVD5xPe5BQ8YwZGUV3fnzerQ5kx+4dI27uP/u6kEV2dvh5ugUxIdX9FST9OspGGb6/RZ+gOXOs5wdKW+8r4JtcV4eeKzKu3/9xpbe/vDyuz5++/zly49fFfL6//V3g9g//fi9Ivnn/wE=);lineShape=1;" vertex="1" parent="1">
                    <mxGeometry x="1201.3375379934555" y="61.697070008268156" width="174.361200774974" height="157.58177473284871" as="geometry"/>
                </mxCell>
                <mxCell id="185" value="so essentially this is the rectangle which we considered" style="text;html=1;align=center;verticalAlign=middle;resizable=0;points=[];autosize=1;strokeColor=none;fillColor=none;" vertex="1" parent="1">
                    <mxGeometry x="1150" y="230" width="320" height="30" as="geometry"/>
                </mxCell>
            </root>
        </mxGraphModel>
    </diagram>
</mxfile>